<?xml version="1.0" encoding="UTF-8" standalone="no"?>
<svg
   xmlns:dc="http://purl.org/dc/elements/1.1/"
   xmlns:cc="http://creativecommons.org/ns#"
   xmlns:rdf="http://www.w3.org/1999/02/22-rdf-syntax-ns#"
   xmlns:svg="http://www.w3.org/2000/svg"
   xmlns="http://www.w3.org/2000/svg"
   viewBox="0 0 413.19467 413.19467"
   height="413.19467"
   width="413.19467"
   xml:space="preserve"
   id="svg2"
   version="1.1"><metadata
     id="metadata8"><rdf:RDF><cc:Work
         rdf:about=""><dc:format>image/svg+xml</dc:format><dc:type
           rdf:resource="http://purl.org/dc/dcmitype/StillImage" /></cc:Work></rdf:RDF></metadata><defs
     id="defs6"><clipPath
       id="clipPath18"
       clipPathUnits="userSpaceOnUse"><path
         id="path16"
         d="M 0,309.896 H 309.896 V 0 H 0 Z" /></clipPath></defs><g
     transform="matrix(1.3333333,0,0,-1.3333333,0,413.19467)"
     id="g10"><g
       id="g12"><g
         clip-path="url(#clipPath18)"
         id="g14"><g
           transform="translate(77.8278,70.3586)"
           id="g20"><path
             id="path22"
             style="fill:#111e60;fill-opacity:1;fill-rule:nonzero;stroke:none"
             d="m 0,0 c -2.95,-1.52 -6.736,-1.877 -7.988,-1.877 -6.528,0 -9.568,5.034 -9.568,9.384 0,4.47 3.13,10.07 10.403,10.07 3.189,0 5.305,-1.013 5.931,-1.013 0.268,0 0.507,0.059 0.686,0.208 h 0.417 v -4.826 h -0.596 c -0.805,3.724 -3.339,4.886 -6.11,4.886 -5.246,0 -7.929,-4.35 -7.929,-9.145 0,-6.109 4.292,-8.82 7.72,-8.82 1.371,0 2.891,0.298 4.56,1.133 v 3.753 c 0,1.699 -0.596,2.265 -2.384,2.265 H -5.961 V 6.554 H 2.087 V 6.018 C 0.597,5.928 0,5.422 0,4.142 Z" /></g><g
           transform="translate(89.9626,87.1906)"
           id="g24"><path
             id="path26"
             style="fill:#111e60;fill-opacity:1;fill-rule:nonzero;stroke:none"
             d="m 0,0 c -5.246,0 -7.332,-4.886 -7.332,-8.461 0,-5.571 3.785,-9.504 8.584,-9.504 4.858,0 7.184,4.29 7.184,8.522 C 8.436,-3.902 4.918,0 0,0 m 0.626,-18.709 c -5.842,0 -10.76,3.754 -10.76,9.324 0,5.93 4.56,10.13 10.909,10.13 5.633,0 10.462,-3.844 10.462,-9.206 0,-6.018 -4.829,-10.248 -10.611,-10.248" /></g><g
           transform="translate(106.4802,72.8312)"
           id="g28"><path
             id="path30"
             style="fill:#111e60;fill-opacity:1;fill-rule:nonzero;stroke:none"
             d="m 0,0 c 0,-2.265 0.894,-3.069 3.397,-3.069 3.935,0 5.068,2.443 5.068,4.766 0,2.294 -1.759,4.649 -5.246,4.649 H 0 Z m 0,6.911 h 3.248 c 2.861,0 4.293,1.132 4.293,3.457 0,2.085 -1.253,3.991 -4.919,3.991 C 1.967,14.359 0.745,14.3 0,14.271 Z m -2.475,4.588 c 0,1.698 -0.209,2.593 -2.295,2.593 h -1.042 v 0.565 c 0.833,0.031 2.89,0.15 3.754,0.179 1.64,0.06 3.906,0.09 4.472,0.09 2.623,0 4.918,-0.388 5.991,-1.162 1.222,-0.865 1.819,-1.877 1.819,-3.307 0,-1.698 -1.402,-3.277 -3.399,-3.635 V 6.763 c 2.802,-0.834 4.442,-2.652 4.442,-4.976 0,-2.353 -1.64,-5.66 -6.439,-5.66 H -6.081 v 0.565 h 0.685 c 2.445,0 2.921,0.567 2.921,2.444 z" /></g><g
           transform="translate(125.529,68.9582)"
           id="g32"><path
             id="path34"
             style="fill:#111e60;fill-opacity:1;fill-rule:nonzero;stroke:none"
             d="m 0,0 h -7.243 v 0.565 c 1.847,0.09 2.235,0.567 2.235,2.563 v 12.691 c 0,1.609 -0.566,2.056 -2.235,2.146 V 18.53 H 0 v -0.565 c -1.878,0 -2.534,-0.418 -2.534,-2.413 V 2.919 C -2.534,1.162 -2.057,0.565 0,0.565 Z" /></g><g
           transform="translate(140.0368,75.6613)"
           id="g36"><path
             id="path38"
             style="fill:#111e60;fill-opacity:1;fill-rule:nonzero;stroke:none"
             d="m 0,0 h -0.566 c -0.239,2.115 -0.805,2.354 -2.028,2.354 h -5.037 v -6.346 c 0,-1.371 0.507,-1.639 1.61,-1.639 h 4.59 c 2.086,0 2.712,0.804 3.457,3.367 H 2.563 L 2.086,-6.703 h -15.827 v 0.565 h 0.835 c 2.384,0 2.802,0.656 2.802,2.444 V 8.878 c 0,1.669 -0.388,2.384 -2.385,2.384 h -0.656 v 0.565 H 1.162 L 1.4,7.686 H 0.864 c -0.387,2.533 -1.133,3.069 -2.206,3.069 H -7.631 V 3.426 h 5.336 c 1.072,0 1.579,0.507 1.729,2.234 L 0,5.66 Z" /></g><g
           transform="translate(147.4606,77.3595)"
           id="g40"><path
             id="path42"
             style="fill:#111e60;fill-opacity:1;fill-rule:nonzero;stroke:none"
             d="m 0,0 c 0.716,-0.09 1.163,-0.06 1.849,-0.06 3.308,0 5.484,1.4 5.484,4.975 0,2.772 -1.252,4.916 -5.843,4.916 -0.566,0 -0.953,0 -1.49,-0.06 z M 0,-5.601 C 0,-7.389 0.716,-7.836 2.385,-7.836 H 3.07 v -0.565 h -8.434 v 0.565 h 0.506 c 1.758,0 2.384,0.477 2.384,2.474 V 7.18 c 0,1.846 -0.506,2.383 -2.235,2.383 h -0.655 v 0.566 c 0.715,0 2.533,0.119 3.755,0.179 1.222,0.059 1.818,0.089 3.755,0.089 5.514,0 7.989,-2.264 7.989,-5.302 C 10.135,2.86 8.614,0.982 6.17,0.268 7.273,-0.597 8.167,-1.43 9.568,-2.831 l 2.355,-2.354 c 1.759,-1.756 3.577,-2.859 5.872,-3.008 v -0.536 c -5.216,-0.239 -6.558,0.893 -9.21,3.544 l -1.968,1.967 c -1.311,1.311 -2.354,2.175 -3.069,2.652 -0.745,-0.031 -1.223,-0.06 -2.027,-0.06 -0.657,0 -1.043,0.029 -1.521,0.06 z" /></g><g
           transform="translate(182.03,68.4465)"
           id="g44"><path
             id="path46"
             style="fill:#111e60;fill-opacity:1;fill-rule:nonzero;stroke:none"
             d="M 0,0 -15.44,16.146 V 3.366 c 0,-2.145 0.477,-2.592 3.01,-2.592 V 0.208 h -6.915 v 0.566 h 0.119 c 1.848,0 2.445,0.625 2.445,1.996 v 14.658 c -0.686,0.476 -1.461,0.715 -2.504,0.745 v 0.565 h 4.68 L -0.566,4.111 v 11.857 c 0,1.817 -0.538,2.145 -2.922,2.205 v 0.565 h 6.975 v -0.565 c -2.235,0 -2.713,-0.388 -2.713,-1.55 L 0.774,0 Z" /></g><g
           transform="translate(194.9567,87.1906)"
           id="g48"><path
             id="path50"
             style="fill:#111e60;fill-opacity:1;fill-rule:nonzero;stroke:none"
             d="m 0,0 c -5.245,0 -7.332,-4.886 -7.332,-8.461 0,-5.571 3.785,-9.504 8.584,-9.504 4.858,0 7.184,4.29 7.184,8.522 C 8.436,-3.902 4.919,0 0,0 m 0.626,-18.709 c -5.842,0 -10.76,3.754 -10.76,9.324 0,5.93 4.561,10.13 10.909,10.13 5.634,0 10.462,-3.844 10.462,-9.206 0,-6.018 -4.828,-10.248 -10.611,-10.248" /></g><g
           transform="translate(218.7409,71.1623)"
           id="g52"><path
             id="path54"
             style="fill:#111e60;fill-opacity:1;fill-rule:nonzero;stroke:none"
             d="m 0,0 c 0,-1.221 0.089,-1.639 2.444,-1.639 3.994,0 5.663,0.567 7.511,2.413 1.104,1.073 2.475,3.368 2.475,6.436 0,2.204 -0.626,4.647 -2.385,6.405 -1.371,1.371 -3.487,2.413 -7.66,2.413 -1.223,0 -2.028,-0.089 -2.385,-0.119 z m -2.475,13.348 c 0,1.935 -0.505,2.413 -2.264,2.413 h -0.597 v 0.565 c 1.104,0.06 2.564,0.119 4.203,0.179 1.64,0.059 3.458,0.09 5.008,0.09 7.869,0 11.356,-3.992 11.356,-8.908 0,-4.499 -3.487,-9.891 -11.029,-9.891 h -9.538 v 0.565 h 0.507 c 1.609,0 2.354,0.448 2.354,2.175 z" /></g><g
           transform="translate(247.0603,75.6613)"
           id="g56"><path
             id="path58"
             style="fill:#111e60;fill-opacity:1;fill-rule:nonzero;stroke:none"
             d="M 0,0 H -0.566 C -0.805,2.115 -1.371,2.354 -2.593,2.354 H -7.63 v -6.346 c 0,-1.371 0.507,-1.639 1.609,-1.639 h 4.59 c 2.087,0 2.713,0.804 3.458,3.367 H 2.563 L 2.087,-6.703 H -13.74 v 0.565 h 0.834 c 2.385,0 2.802,0.656 2.802,2.444 V 8.878 c 0,1.669 -0.387,2.384 -2.384,2.384 h -0.657 v 0.565 H 1.163 L 1.401,7.686 H 0.864 c -0.386,2.533 -1.132,3.069 -2.205,3.069 H -7.63 V 3.426 h 5.335 c 1.073,0 1.58,0.507 1.729,2.234 L 0,5.66 Z" /></g><g
           transform="translate(74.3151,47.3947)"
           id="g60"><path
             id="path62"
             style="fill:#111e60;fill-opacity:1;fill-rule:nonzero;stroke:none"
             d="m 0,0 h -0.574 c -0.243,2.146 -0.817,2.389 -2.057,2.389 h -5.112 v -6.44 c 0,-1.39 0.514,-1.663 1.634,-1.663 h 4.657 c 2.118,0 2.753,0.817 3.509,3.417 H 2.602 L 2.117,-6.802 h -16.06 v 0.574 h 0.846 c 2.42,0 2.844,0.666 2.844,2.48 V 9.009 c 0,1.693 -0.393,2.419 -2.42,2.419 h -0.665 v 0.574 H 1.18 L 1.421,7.8 H 0.877 c -0.393,2.569 -1.149,3.113 -2.238,3.113 H -7.743 V 3.477 h 5.414 c 1.089,0 1.603,0.513 1.755,2.267 l 0.574,0 z" /></g><g
           transform="translate(91.4665,40.5929)"
           id="g64"><path
             id="path66"
             style="fill:#111e60;fill-opacity:1;fill-rule:nonzero;stroke:none"
             d="m 0,0 h -13.52 v 0.574 h 0.999 c 1.391,0 1.906,0.453 1.906,1.996 v 13.392 c 0,1.602 -0.485,2.267 -2.39,2.267 h -0.424 v 0.575 h 8.922 v -0.575 h -1.118 c -1.966,0 -2.48,-0.211 -2.48,-2.086 V 2.207 c 0,-0.816 0.333,-1.119 1.209,-1.119 h 4.447 c 1.784,0 2.329,0.695 4.234,3.326 h 0.544 z" /></g><g
           transform="translate(102.5407,45.1877)"
           id="g68"><path
             id="path70"
             style="fill:#111e60;fill-opacity:1;fill-rule:nonzero;stroke:none"
             d="m 0,0 c 0.636,-2.69 2.752,-4.262 5.111,-4.262 2.028,0 4.174,1.179 4.174,3.567 0,4.353 -9.709,5.683 -9.709,10.973 0,2.51 2.299,4.384 5.384,4.384 2.541,0 3.055,-0.756 4.114,-0.756 0.241,0 0.363,0.061 0.544,0.303 h 0.484 l 0.514,-3.839 h -0.514 c -0.847,2.176 -2.783,3.567 -4.87,3.567 -1.996,0 -3.387,-1.149 -3.387,-2.842 0,-4.292 9.709,-5.442 9.709,-11.004 0,-2.962 -2.631,-5.169 -6.17,-5.169 -1.664,0 -3.78,0.816 -4.204,0.816 -0.273,0 -0.485,-0.152 -0.606,-0.333 H 0.061 L -0.575,0 Z" /></g><g
           transform="translate(124.1677,57.3107)"
           id="g72"><path
             id="path74"
             style="fill:#111e60;fill-opacity:1;fill-rule:nonzero;stroke:none"
             d="m 0,0 -2.57,-7.044 h 5.232 z m -3.084,-8.374 -1.755,-4.746 c -0.212,-0.575 -0.604,-1.483 -0.604,-1.904 0,-0.817 0.786,-1.12 2.449,-1.12 h 0.484 v -0.574 h -6.987 v 0.574 c 1.967,0.031 2.3,0.363 3.267,2.994 l 5.504,15.024 -0.271,0.665 h 2.631 l 6.321,-16.778 c 0.606,-1.602 1.24,-1.905 2.752,-1.905 v -0.574 H 2.39 v 0.574 h 0.786 c 1.724,0 2.359,0.181 2.359,1.028 0,0.484 -0.212,0.938 -0.332,1.24 l -2.027,5.502 z" /></g><g
           transform="translate(148.2468,40.5929)"
           id="g76"><path
             id="path78"
             style="fill:#111e60;fill-opacity:1;fill-rule:nonzero;stroke:none"
             d="m 0,0 h -13.52 v 0.574 h 0.999 c 1.39,0 1.905,0.453 1.905,1.996 v 13.392 c 0,1.602 -0.484,2.267 -2.389,2.267 h -0.424 v 0.575 h 8.922 v -0.575 h -1.118 c -1.966,0 -2.481,-0.211 -2.481,-2.086 V 2.207 c 0,-0.816 0.333,-1.119 1.21,-1.119 h 4.447 c 1.784,0 2.328,0.695 4.233,3.326 h 0.545 z" /></g><g
           transform="translate(155.1091,40.1095)"
           id="g80"><path
             id="path82"
             style="fill:#111e60;fill-opacity:1;fill-rule:nonzero;stroke:none"
             d="m 0,0 -6.562,16.354 c -0.757,1.905 -1.12,2.359 -2.965,2.359 v 0.574 H -1.21 V 18.713 C -3.992,18.652 -4.657,18.017 -4.083,16.626 L 1.361,3.083 6.141,15.568 c 0.332,0.847 0.513,1.452 0.513,1.875 0,0.907 -0.756,1.27 -2.813,1.27 v 0.574 h 7.017 v -0.574 c -1.573,0 -2.389,-0.726 -3.115,-2.601 L 1.513,0 Z" /></g><g
           transform="translate(171.9587,57.3107)"
           id="g84"><path
             id="path86"
             style="fill:#111e60;fill-opacity:1;fill-rule:nonzero;stroke:none"
             d="m 0,0 -2.57,-7.044 h 5.232 z m -3.085,-8.374 -1.754,-4.746 c -0.212,-0.575 -0.604,-1.483 -0.604,-1.904 0,-0.817 0.786,-1.12 2.449,-1.12 h 0.484 v -0.574 h -6.987 v 0.574 c 1.967,0.031 2.3,0.363 3.267,2.994 l 5.504,15.024 -0.271,0.665 h 2.631 l 6.321,-16.778 c 0.606,-1.602 1.24,-1.905 2.752,-1.905 v -0.574 H 2.39 v 0.574 h 0.786 c 1.724,0 2.359,0.181 2.359,1.028 0,0.484 -0.212,0.938 -0.332,1.24 l -2.027,5.502 z" /></g><g
           transform="translate(187.78,42.8302)"
           id="g88"><path
             id="path90"
             style="fill:#111e60;fill-opacity:1;fill-rule:nonzero;stroke:none"
             d="m 0,0 c 0,-1.239 0.091,-1.663 2.48,-1.663 4.053,0 5.747,0.575 7.623,2.448 1.118,1.089 2.509,3.417 2.509,6.53 0,2.237 -0.634,4.716 -2.419,6.5 -1.391,1.391 -3.54,2.449 -7.773,2.449 -1.24,0 -2.057,-0.091 -2.42,-0.121 z m -2.51,13.543 c 0,1.965 -0.514,2.449 -2.3,2.449 h -0.604 v 0.574 c 1.119,0.061 2.601,0.121 4.265,0.181 1.664,0.061 3.508,0.091 5.081,0.091 7.984,0 11.524,-4.05 11.524,-9.038 0,-4.566 -3.54,-10.037 -11.191,-10.037 h -9.679 v 0.574 h 0.515 c 1.632,0 2.389,0.453 2.389,2.207 z" /></g><g
           transform="translate(214.8571,59.0939)"
           id="g92"><path
             id="path94"
             style="fill:#111e60;fill-opacity:1;fill-rule:nonzero;stroke:none"
             d="m 0,0 c -5.323,0 -7.44,-4.958 -7.44,-8.586 0,-5.652 3.84,-9.643 8.711,-9.643 4.929,0 7.289,4.353 7.289,8.646 C 8.56,-3.96 4.99,0 0,0 m 0.635,-18.984 c -5.928,0 -10.919,3.808 -10.919,9.462 0,6.016 4.628,10.278 11.07,10.278 5.717,0 10.616,-3.9 10.616,-9.342 0,-6.106 -4.899,-10.398 -10.767,-10.398" /></g><g
           transform="translate(231.4675,49.1174)"
           id="g96"><path
             id="path98"
             style="fill:#111e60;fill-opacity:1;fill-rule:nonzero;stroke:none"
             d="m 0,0 c 0.726,-0.09 1.18,-0.06 1.875,-0.06 3.357,0 5.565,1.42 5.565,5.048 0,2.812 -1.27,4.989 -5.927,4.989 -0.576,0 -0.968,0 -1.513,-0.061 z M 0,-5.683 C 0,-7.497 0.726,-7.95 2.42,-7.95 h 0.695 v -0.574 h -8.559 v 0.574 h 0.514 c 1.784,0 2.42,0.483 2.42,2.51 V 7.286 c 0,1.874 -0.514,2.419 -2.268,2.419 h -0.666 v 0.574 c 0.726,0 2.571,0.121 3.81,0.181 1.24,0.061 1.846,0.091 3.812,0.091 5.594,0 8.105,-2.297 8.105,-5.381 C 10.283,2.903 8.74,0.998 6.261,0.272 7.38,-0.604 8.287,-1.45 9.709,-2.871 l 2.39,-2.389 c 1.784,-1.783 3.629,-2.901 5.958,-3.053 V -8.857 C 12.764,-9.099 11.402,-7.95 8.71,-5.26 l -1.995,1.995 c -1.331,1.33 -2.39,2.207 -3.116,2.691 -0.756,-0.03 -1.241,-0.06 -2.057,-0.06 -0.665,0 -1.058,0.03 -1.542,0.06 z" /></g><g
           transform="translate(155.0524,270.2824)"
           id="g100"><path
             id="path102"
             style="fill:#111e60;fill-opacity:1;fill-rule:nonzero;stroke:none"
             d="M 0,0 2.222,-4.5 7.19,-5.221 3.595,-8.724 4.443,-13.669 0,-11.334 l -4.443,-2.335 0.848,4.945 -3.594,3.503 4.967,0.721 z" /></g><g
           transform="translate(187.7116,261.946)"
           id="g104"><path
             id="path106"
             style="fill:#111e60;fill-opacity:1;fill-rule:nonzero;stroke:none"
             d="M 0,0 2.222,-4.5 7.189,-5.221 3.595,-8.724 4.443,-13.669 0,-11.334 l -4.443,-2.335 0.848,4.945 -3.595,3.503 4.968,0.721 z" /></g><g
           transform="translate(212.7546,241.6769)"
           id="g108"><path
             id="path110"
             style="fill:#111e60;fill-opacity:1;fill-rule:nonzero;stroke:none"
             d="M 0,0 2.222,-4.5 7.19,-5.221 3.595,-8.724 4.443,-13.669 0,-11.334 l -4.443,-2.335 0.848,4.945 -3.594,3.503 4.967,0.721 z" /></g><g
           transform="translate(227.0603,212.6574)"
           id="g112"><path
             id="path114"
             style="fill:#111e60;fill-opacity:1;fill-rule:nonzero;stroke:none"
             d="M 0,0 2.222,-4.5 7.189,-5.221 3.595,-8.724 4.443,-13.669 0,-11.334 l -4.444,-2.335 0.848,4.945 -3.594,3.503 4.967,0.721 z" /></g><g
           transform="translate(227.6091,178.9782)"
           id="g116"><path
             id="path118"
             style="fill:#111e60;fill-opacity:1;fill-rule:nonzero;stroke:none"
             d="M 0,0 2.222,-4.5 7.19,-5.221 3.595,-8.724 4.443,-13.669 0,-11.334 l -4.443,-2.335 0.848,4.945 -3.594,3.503 4.967,0.721 z" /></g><g
           transform="translate(212.7839,149.8234)"
           id="g120"><path
             id="path122"
             style="fill:#111e60;fill-opacity:1;fill-rule:nonzero;stroke:none"
             d="M 0,0 2.222,-4.499 7.189,-5.221 3.595,-8.724 4.443,-13.669 0,-11.334 l -4.443,-2.335 0.848,4.945 -3.595,3.503 4.968,0.722 z" /></g><g
           transform="translate(187.8689,129.5383)"
           id="g124"><path
             id="path126"
             style="fill:#111e60;fill-opacity:1;fill-rule:nonzero;stroke:none"
             d="M 0,0 2.222,-4.5 7.189,-5.222 3.595,-8.724 4.443,-13.669 0,-11.334 l -4.443,-2.335 0.848,4.945 -3.594,3.502 4.967,0.722 z" /></g><g
           transform="translate(155.0397,122.4172)"
           id="g128"><path
             id="path130"
             style="fill:#111e60;fill-opacity:1;fill-rule:nonzero;stroke:none"
             d="M 0,0 2.222,-4.5 7.189,-5.222 3.595,-8.724 4.443,-13.67 0,-11.335 l -4.444,-2.335 0.849,4.946 -3.595,3.502 4.968,0.722 z" /></g><g
           transform="translate(122.9372,129.5177)"
           id="g132"><path
             id="path134"
             style="fill:#111e60;fill-opacity:1;fill-rule:nonzero;stroke:none"
             d="M 0,0 2.222,-4.499 7.19,-5.221 3.596,-8.724 4.444,-13.669 0,-11.334 l -4.443,-2.335 0.848,4.945 -3.594,3.503 4.967,0.722 z" /></g><g
           transform="translate(98.0095,149.7873)"
           id="g136"><path
             id="path138"
             style="fill:#111e60;fill-opacity:1;fill-rule:nonzero;stroke:none"
             d="M 0,0 2.222,-4.5 7.19,-5.222 3.595,-8.724 4.443,-13.669 0,-11.334 l -4.443,-2.335 0.848,4.945 -3.594,3.502 4.967,0.722 z" /></g><g
           transform="translate(83.1657,178.7614)"
           id="g140"><path
             id="path142"
             style="fill:#111e60;fill-opacity:1;fill-rule:nonzero;stroke:none"
             d="M 0,0 2.222,-4.5 7.189,-5.221 3.595,-8.724 4.443,-13.669 0,-11.334 l -4.443,-2.335 0.848,4.945 -3.595,3.503 4.968,0.721 z" /></g><g
           transform="translate(83.1657,212.6574)"
           id="g144"><path
             id="path146"
             style="fill:#111e60;fill-opacity:1;fill-rule:nonzero;stroke:none"
             d="M 0,0 2.222,-4.5 7.189,-5.221 3.595,-8.724 4.443,-13.669 0,-11.334 l -4.443,-2.335 0.848,4.945 -3.595,3.503 4.968,0.721 z" /></g><g
           transform="translate(97.2556,241.6408)"
           id="g148"><path
             id="path150"
             style="fill:#111e60;fill-opacity:1;fill-rule:nonzero;stroke:none"
             d="M 0,0 2.223,-4.5 7.19,-5.221 3.596,-8.724 4.444,-13.669 0,-11.334 l -4.443,-2.335 0.848,4.945 -3.594,3.503 4.967,0.721 z" /></g><g
           transform="translate(122.8952,261.9259)"
           id="g152"><path
             id="path154"
             style="fill:#111e60;fill-opacity:1;fill-rule:nonzero;stroke:none"
             d="M 0,0 2.223,-4.5 7.19,-5.221 3.596,-8.724 4.444,-13.669 0,-11.334 l -4.443,-2.335 0.848,4.945 -3.594,3.503 4.967,0.721 z" /></g><g
           transform="translate(193.1315,177.8332)"
           id="g156"><path
             id="path158"
             style="fill:#111e60;fill-opacity:1;fill-rule:nonzero;stroke:none"
             d="m 0,0 c -0.023,0.003 -0.046,0.015 -0.071,0.015 -0.349,0 -0.617,-0.268 -0.617,-0.617 0,-0.348 0.268,-0.617 0.617,-0.617 0.025,0 0.048,0.012 0.071,0.015 0.026,-0.003 0.049,-0.015 0.075,-0.015 0.322,0 0.617,0.269 0.617,0.617 0,0.349 -0.296,0.617 -0.617,0.617 C 0.049,0.015 0.026,0.003 0,0" /></g><g
           transform="translate(182.4323,162.1867)"
           id="g160"><path
             id="path162"
             style="fill:#111e60;fill-opacity:1;fill-rule:nonzero;stroke:none"
             d="M 0,0 C 0.063,0.111 0.105,0.206 0.115,0.274 0.195,0.703 0.598,1.587 0.491,2.044 0.41,2.5 0.223,3.626 -0.072,4.269 c -0.268,0.67 -0.912,2.224 -1.582,2.52 0,0 -0.536,-1.77 -0.725,-2.413 C -2.566,3.706 -2.754,2.955 -3.049,2.606 -3.135,2.487 -3.29,2.219 -3.461,1.898 -3.503,2.167 -3.492,2.155 -3.426,3.141 -3.319,4.374 -5.277,6.304 -5.277,6.304 -5.089,5.768 -5.841,3.624 -6.216,3.141 -6.592,2.685 -7.154,1.292 -7.235,0.461 c -0.08,-0.859 -0.456,-1.395 -0.751,-1.771 -0.556,-0.757 0.065,-3.937 0.138,-4.301 -1.245,-0.772 -2.546,-1.521 -3.756,-2.132 -0.361,-0.179 -0.773,-0.364 -1.218,-0.551 0.083,0.08 0.167,0.145 0.248,0.231 1.717,1.823 1.628,2.426 1.85,2.868 0.58,0.1 -0.78,0.248 -1.57,0.177 0.462,0.701 1.101,1.66 1.545,2.48 0.349,0.67 -3.004,-0.214 -3.004,-0.214 -0.363,-0.146 -0.652,-0.257 -0.892,-0.346 0.279,1.007 0.57,2.117 0.542,2.351 -0.027,0.267 -1.42,-0.188 -2.547,-0.67 -0.966,-0.403 -1.529,-1.18 -2.36,-1.69 -0.993,-0.643 -1.127,-2.251 -1.583,-3.002 -0.304,-0.52 -0.48,-0.918 -0.584,-1.252 -0.093,0.752 -0.376,1.101 -0.662,1.248 -0.002,0.001 -0.004,0.002 -0.006,0.003 -0.013,0.006 -0.026,0.014 -0.04,0.02 -0.013,0.006 -0.032,0.012 -0.05,0.018 -0.064,0.024 -0.127,0.042 -0.187,0.051 -0.214,0.046 -0.562,0.101 -1.11,0.162 -0.751,0.08 -1.958,0 -2.522,-1.046 -0.534,-0.967 -1.017,-3.372 -1.226,-3.936 -0.139,0.055 -0.283,0.093 -0.435,0.093 -0.152,0 -0.296,-0.038 -0.434,-0.093 -0.209,0.566 -0.692,2.969 -1.226,3.936 -0.564,1.046 -1.771,1.126 -2.522,1.046 -0.549,-0.061 -0.896,-0.116 -1.11,-0.162 -0.06,-0.009 -0.123,-0.027 -0.188,-0.051 -0.018,-0.006 -0.036,-0.012 -0.049,-0.018 -0.014,-0.006 -0.027,-0.014 -0.04,-0.02 -0.002,-10e-4 -0.004,-0.002 -0.006,-0.003 -0.342,-0.175 -0.679,-0.636 -0.693,-1.733 -0.058,0.427 -0.226,0.941 -0.693,1.737 -0.456,0.751 -0.59,2.359 -1.583,3.002 -0.831,0.51 -1.395,1.287 -2.359,1.69 -1.127,0.482 -2.522,0.937 -2.548,0.67 -0.028,-0.234 0.262,-1.344 0.541,-2.351 -0.238,0.089 -0.529,0.2 -0.891,0.346 0,0 -3.352,0.884 -3.004,0.214 0.445,-0.82 1.083,-1.779 1.545,-2.48 -0.79,0.071 -2.15,-0.077 -1.57,-0.177 0.223,-0.442 0.134,-1.045 1.85,-2.868 0.082,-0.086 0.166,-0.151 0.249,-0.231 -0.446,0.187 -0.858,0.372 -1.219,0.551 -1.21,0.611 -2.511,1.36 -3.756,2.132 0.073,0.364 0.694,3.544 0.139,4.301 -0.295,0.376 -0.671,0.912 -0.751,1.771 -0.081,0.831 -0.644,2.224 -1.02,2.68 -0.375,0.483 -1.127,2.627 -0.938,3.163 0,0 -1.958,-1.93 -1.852,-3.163 0.066,-0.986 0.077,-0.974 0.035,-1.243 -0.172,0.321 -0.326,0.589 -0.412,0.708 -0.295,0.349 -0.482,1.1 -0.67,1.77 -0.188,0.643 -0.724,2.413 -0.724,2.413 -0.671,-0.296 -1.315,-1.85 -1.582,-2.52 -0.295,-0.643 -0.483,-1.769 -0.564,-2.225 -0.107,-0.457 0.296,-1.341 0.376,-1.77 0.01,-0.068 0.052,-0.163 0.115,-0.274 -1.385,1.05 -2.546,2.074 -3.672,3.747 0.1,0.453 0.201,0.801 0.395,0.978 0.267,0.295 1.206,1.421 1.393,2.144 0.189,0.751 0,1.314 0,1.689 0,0.376 0.268,1.662 0.268,1.662 0,0 -0.013,0.045 -0.032,0.107 h 1.561 c 2.783,-2.052 12.788,-8.365 24.558,-3.226 -0.064,-0.193 -0.128,-0.343 -0.187,-0.419 0,0 -2.528,-3.429 3.186,-4.592 L -27.5,2.089 c 0.001,0 0.002,0 0.003,10e-4 0.001,-10e-4 0.002,-10e-4 0.003,-10e-4 l -0.001,10e-4 c 5.714,1.163 3.185,4.592 3.185,4.592 -0.059,0.076 -0.122,0.228 -0.187,0.422 11.773,-5.145 21.782,1.171 24.565,3.223 h 1.58 C 1.629,10.265 1.616,10.22 1.616,10.22 c 0,0 0.268,-1.286 0.268,-1.662 0,-0.375 -0.189,-0.938 0,-1.689 C 2.07,6.146 3.01,5.02 3.277,4.725 3.472,4.548 3.572,4.2 3.672,3.747 2.546,2.074 1.386,1.05 0,0 m -28.714,-11.768 c -0.297,0.167 -1.166,0.584 -2.4,0.606 -1.646,1.97 -1.004,3.845 -0.836,4.244 1.15,-1.314 2.876,-4.124 3.268,-4.772 -0.01,-0.026 -0.021,-0.051 -0.032,-0.078 m 4.999,0.606 c -1.235,-0.022 -2.105,-0.44 -2.401,-0.606 -0.01,0.026 -0.021,0.051 -0.032,0.077 0.391,0.646 2.119,3.458 3.269,4.773 0.168,-0.399 0.81,-2.275 -0.836,-4.244 m -42.104,38.633 c 0.059,0.186 0.11,0.374 0.148,0.565 0.073,0.087 0.155,0.146 0.245,0.146 0.376,0 0.832,0.268 1.127,0.455 0.268,0.188 0.375,0.375 1.126,0.671 0.725,0.267 0.725,0.911 1.395,2.117 0.642,1.234 0.376,3.539 0.376,3.539 -0.079,-0.254 -0.697,-0.818 -1.276,-1.252 0.011,0.541 -0.088,1.174 -0.156,1.462 -0.08,0.456 0,1.127 0,1.127 -1.663,-0.859 -1.851,-2.44 -2.602,-3.271 -0.002,-0.003 -0.004,-0.007 -0.007,-0.01 0.211,1.764 0.519,3.594 0.946,5.325 v -0.007 c 0.081,0.268 0.644,0.563 1.314,0.751 0.282,0.081 0.633,0.411 0.98,0.786 0,-0.004 -0.002,-0.008 -10e-4,-0.012 0.015,-0.184 0.1,-0.34 0.241,-0.438 0.096,-0.068 0.207,-0.102 0.325,-0.102 0.056,0 0.114,0.008 0.17,0.023 0.09,0.025 0.173,0.068 0.247,0.124 l -0.153,-0.959 c 0,0 -0.138,-0.407 0.651,-0.573 -0.183,-2.007 -1.325,-16.66 3.577,-25.212 l -0.34,-0.567 c -0.409,0.354 -1.254,1.54 -1.432,1.895 0,0 0.106,-0.751 -0.187,-1.127 -0.234,-0.326 -0.345,-1.08 -0.371,-1.623 -0.102,0.468 -0.237,0.879 -0.166,1.249 0.08,0.562 0.268,0.938 0.162,1.956 -0.082,1.019 -0.35,2.225 -0.35,2.225 -0.107,-1.018 -0.858,-1.018 -1.233,-2.036 -0.269,-0.805 -0.349,-0.752 -0.832,-1.503 -0.289,-0.457 -0.416,-0.891 -0.447,-1.289 -0.424,1.216 -0.819,2.44 -1.177,3.639 0.104,0.17 0.172,0.765 0.226,1.46 0.422,0.389 0.83,0.421 1.004,0.67 0.187,0.295 0.107,0.644 0.295,1.019 0.188,0.375 0.59,0.992 0.643,1.314 0.188,1.019 0.751,2.144 0.269,3.243 0,0 -0.239,-0.082 -0.516,-0.187 0.039,0.236 0.078,0.442 0.137,0.558 0.161,0.376 0.08,2.895 -0.187,3.538 0,0 -0.751,-0.563 -1.127,-1.018 -0.375,-0.456 -1.02,-0.644 -1.207,-1.207 -0.188,-0.564 -0.563,-0.564 -0.831,-1.126 -0.207,-0.393 -0.389,-0.957 -0.423,-1.516 -0.349,1.69 -0.554,3.04 -0.577,3.795 -0.011,0.421 -0.013,0.886 -0.006,1.383 m 6.052,14.509 c -0.003,-0.006 -0.365,-0.572 -0.864,-0.651 -0.022,0.107 -0.012,0.211 0.002,0.312 0.224,0.297 0.449,0.599 0.798,0.798 0.024,0.014 0.047,0.038 0.07,0.055 0.049,-0.048 0.084,-0.112 0.091,-0.192 0.009,-0.106 -0.024,-0.218 -0.097,-0.322 m 7.15,15.381 c -0.057,0.003 -0.139,0.021 -0.202,0.089 -0.063,0.069 -0.073,0.153 -0.07,0.21 0.005,0.116 0.065,0.233 0.172,0.332 0.005,0.005 0.415,0.448 0.909,0.448 0.023,0 0.046,-10e-4 0.07,-0.003 -0.016,-0.504 -0.533,-0.936 -0.543,-0.945 -0.098,-0.089 -0.22,-0.143 -0.336,-0.131 m -0.461,2.97 h 0.001 -0.001 l 0.996,-0.337 0.04,-0.801 h -10e-4 10e-4 l -0.793,0.115 z m 2.305,-0.571 c 0.098,0.089 0.217,0.141 0.335,0.131 0.058,-0.003 0.14,-0.02 0.203,-0.089 0.062,-0.069 0.072,-0.152 0.07,-0.21 -0.006,-0.115 -0.064,-0.233 -0.168,-0.327 -0.005,-0.005 -0.449,-0.448 -0.935,-0.448 -0.016,0 -0.033,10e-4 -0.051,0.002 0.005,0.527 0.53,0.928 0.546,0.941 m 23.058,5.235 c 0,0 0.711,1.13 1.035,2.498 0.476,-3.033 -0.122,-5.294 -0.342,-5.982 l -0.475,0.794 -1.557,-2.602 c -0.092,0.982 -0.063,3.055 1.339,5.292 m -1.095,6.129 h -0.001 c -0.13,0 -0.253,0.046 -0.335,0.128 -0.041,0.041 -0.09,0.109 -0.09,0.203 0,0.092 0.049,0.16 0.089,0.201 0.082,0.082 0.205,0.13 0.351,0.131 0.008,-0.002 0.663,0.06 1.023,-0.329 -0.35,-0.363 -1.022,-0.335 -1.037,-0.334 m 1.318,2.637 0.001,-10e-4 v 10e-4 l 0.51,-0.919 -0.508,-0.62 v 0.001 l -10e-4,-0.001 -0.509,0.619 z m 1.22,-1.969 c 0.073,0 0.103,-0.004 0.104,-0.003 0.234,0 0.426,-0.148 0.427,-0.33 0,-0.183 -0.192,-0.332 -0.434,-0.333 -0.007,0 -0.681,-0.028 -1.03,0.333 0.275,0.298 0.73,0.333 0.933,0.333 m 21.52,-11.99 c 0.055,0.059 0.132,0.089 0.218,0.089 0.107,0 0.228,-0.047 0.331,-0.14 0.006,-0.004 0.466,-0.369 0.517,-0.858 -0.066,0.003 -0.122,-0.013 -0.168,-0.048 -0.427,0.07 -0.796,0.416 -0.805,0.425 -0.174,0.158 -0.216,0.397 -0.093,0.532 m 1.848,0.192 0.995,0.337 h -10e-4 10e-4 l -0.242,-1.023 -0.793,-0.115 v 0 0 z m 0.737,-2.544 c -0.124,-0.135 -0.366,-0.115 -0.545,0.047 -0.006,0.004 -0.47,0.405 -0.522,0.882 0.011,0.017 0.023,0.034 0.029,0.052 0.508,0.022 0.932,-0.435 0.945,-0.449 0.174,-0.158 0.215,-0.397 0.093,-0.532 M 4.775,41.986 c -0.076,0.109 -0.107,0.237 -0.087,0.35 0.008,0.05 0.038,0.115 0.094,0.166 0.027,-0.02 0.052,-0.047 0.08,-0.063 0.34,-0.194 0.563,-0.485 0.781,-0.775 0.017,-0.108 0.026,-0.22 0.002,-0.335 -0.499,0.079 -0.862,0.646 -0.87,0.657 M -17.71,10.327 h 8.837 c -5.52,-4.002 -11.979,-2.299 -12.973,-2 1.253,0.334 2.704,0.937 4.136,2 m -10.759,-5.24 c 0,0 0.615,3.212 0.971,5.24 h 0.002 c 0.356,-2.028 0.971,-5.24 0.971,-5.24 0.377,-1.566 -0.957,-2.98 -0.972,-2.995 -0.015,0.015 -1.349,1.429 -0.972,2.995 m -8.808,5.24 c 1.432,-1.063 2.883,-1.666 4.135,-2 -0.993,-0.299 -7.453,-2.002 -12.972,2 z m 5.79,15.885 c 0.253,-0.248 0.491,-0.509 0.726,-0.774 0.264,-0.294 0.532,-0.585 0.8,-0.876 0.48,-0.518 0.967,-1.028 1.459,-1.533 0.882,-0.904 1.781,-1.788 2.716,-2.638 0.358,-0.326 0.723,-0.646 1.095,-0.958 0.017,-0.015 0.034,-0.03 0.062,-0.054 -0.023,-0.004 -0.031,-0.006 -0.04,-0.006 H -50.3 c -0.01,0.025 0.009,0.033 0.019,0.043 0.118,0.119 0.237,0.238 0.356,0.355 0.384,0.377 0.773,0.749 1.171,1.111 0.482,0.437 0.973,0.864 1.489,1.259 0.313,0.239 0.634,0.465 0.974,0.665 0.097,0.057 0.188,0.123 0.281,0.187 0.814,0.568 1.586,1.187 2.307,1.869 0.413,0.391 0.804,0.802 1.162,1.244 0.023,0.028 0.046,0.058 0.065,0.088 0.299,0.485 0.634,0.942 0.993,1.383 0.287,0.354 0.59,0.693 0.915,1.013 0.338,0.333 0.695,0.643 1.089,0.909 0.255,0.173 0.523,0.323 0.812,0.435 0.195,0.076 0.396,0.131 0.605,0.156 0.366,0.044 0.709,-0.023 1.032,-0.199 0.139,-0.077 0.27,-0.166 0.391,-0.269 0.286,-0.243 0.589,-0.464 0.899,-0.675 0.362,-0.245 0.736,-0.47 1.127,-0.666 0.206,-0.103 0.415,-0.196 0.63,-0.278 0.142,-0.054 0.277,-0.123 0.411,-0.195 0.36,-0.196 0.699,-0.424 1.025,-0.672 0.373,-0.284 0.725,-0.594 1.06,-0.924 m 11.46,-2.138 c 0.408,-0.462 0.827,-0.912 1.251,-1.36 0.383,-0.406 0.772,-0.807 1.167,-1.202 0.67,-0.673 1.354,-1.33 2.067,-1.958 0.054,-0.047 0.107,-0.094 0.161,-0.141 0.01,-0.008 0.018,-0.018 0.029,-0.031 -0.011,-0.004 -0.017,-0.008 -0.023,-0.008 -0.021,-10e-4 -0.041,-10e-4 -0.062,-10e-4 h -2.503 c -0.004,0 -0.009,0 -0.014,0 -0.043,-0.005 -0.078,0.009 -0.113,0.037 -0.189,0.154 -0.381,0.304 -0.568,0.46 -0.615,0.512 -1.204,1.053 -1.78,1.608 -0.312,0.3 -0.62,0.602 -0.926,0.908 -0.817,0.821 -1.615,1.66 -2.393,2.519 -0.179,0.197 -0.356,0.398 -0.539,0.59 -0.462,0.483 -0.963,0.922 -1.513,1.304 -0.259,0.18 -0.526,0.344 -0.809,0.486 -0.013,0.007 -0.027,0.015 -0.046,0.025 0.007,0.009 0.012,0.017 0.018,0.021 0.238,0.147 0.488,0.266 0.763,0.329 0.137,0.031 0.276,0.043 0.417,0.032 0.17,-0.013 0.328,-0.067 0.477,-0.148 0.113,-0.062 0.216,-0.139 0.316,-0.221 0.562,-0.461 1.165,-0.859 1.824,-1.168 0.092,-0.043 0.184,-0.083 0.278,-0.119 0.164,-0.062 0.32,-0.14 0.472,-0.227 0.346,-0.199 0.668,-0.432 0.973,-0.686 0.387,-0.321 0.744,-0.673 1.076,-1.049 m 4.452,-0.033 c 0.278,-0.242 0.538,-0.501 0.782,-0.777 0.529,-0.597 1.076,-1.178 1.631,-1.75 0.498,-0.514 1.005,-1.017 1.527,-1.506 0.208,-0.195 0.42,-0.385 0.63,-0.577 0.016,-0.014 0.03,-0.029 0.052,-0.049 -0.016,-0.005 -0.022,-0.008 -0.027,-0.008 -0.021,-10e-4 -0.041,-10e-4 -0.063,-10e-4 h -2.799 c -0.012,0 -0.023,10e-4 -0.035,0 -0.037,-0.006 -0.065,0.01 -0.094,0.033 -0.189,0.156 -0.383,0.309 -0.57,0.467 -0.54,0.455 -1.059,0.933 -1.566,1.423 -0.296,0.286 -0.591,0.574 -0.881,0.865 -0.761,0.764 -1.503,1.546 -2.227,2.345 -0.159,0.175 -0.315,0.352 -0.478,0.524 -0.264,0.28 -0.545,0.541 -0.841,0.786 -0.014,0.012 -0.028,0.024 -0.041,0.037 -0.003,0.002 -0.005,0.008 -0.009,0.016 0.006,0.005 0.014,0.01 0.021,0.016 0.192,0.139 0.392,0.264 0.614,0.352 0.141,0.057 0.287,0.096 0.44,0.104 0.165,0.009 0.32,-0.028 0.465,-0.104 0.097,-0.05 0.185,-0.113 0.268,-0.182 0.445,-0.37 0.923,-0.69 1.44,-0.953 0.143,-0.073 0.289,-0.14 0.44,-0.196 0.143,-0.054 0.277,-0.125 0.408,-0.201 0.326,-0.191 0.627,-0.417 0.913,-0.664 m 2.768,0.269 c 0.057,-0.025 0.115,-0.051 0.172,-0.072 0.143,-0.053 0.278,-0.124 0.407,-0.201 0.347,-0.207 0.663,-0.456 0.958,-0.73 0.19,-0.175 0.37,-0.359 0.541,-0.552 0.343,-0.389 0.696,-0.771 1.055,-1.146 0.323,-0.336 0.65,-0.671 0.978,-1.001 0.397,-0.4 0.805,-0.788 1.222,-1.167 0.019,-0.017 0.043,-0.032 0.057,-0.06 -0.011,-0.004 -0.017,-0.007 -0.022,-0.007 -0.021,-10e-4 -0.041,-10e-4 -0.062,-10e-4 h -1.973 c -0.002,0 -0.005,0 -0.006,0 -0.051,-0.007 -0.091,0.011 -0.131,0.044 -0.386,0.314 -0.758,0.641 -1.124,0.978 -0.357,0.328 -0.706,0.665 -1.051,1.006 -0.759,0.752 -1.496,1.526 -2.215,2.318 -0.15,0.166 -0.3,0.335 -0.457,0.497 -0.355,0.366 -0.737,0.699 -1.154,0.991 -0.018,0.012 -0.034,0.024 -0.053,0.039 0.007,0.008 0.011,0.017 0.018,0.021 0.173,0.109 0.357,0.196 0.56,0.239 0.203,0.043 0.393,0.013 0.57,-0.094 0.072,-0.043 0.136,-0.094 0.201,-0.147 0.464,-0.379 0.962,-0.707 1.509,-0.955 m -14.797,2.439 c 0.109,-0.051 0.219,-0.098 0.331,-0.142 0.126,-0.049 0.249,-0.106 0.369,-0.17 0.335,-0.179 0.647,-0.393 0.948,-0.625 0.497,-0.386 0.948,-0.821 1.366,-1.291 0.636,-0.717 1.292,-1.417 1.959,-2.104 0.274,-0.282 0.549,-0.563 0.828,-0.84 0.705,-0.702 1.426,-1.389 2.178,-2.041 0.047,-0.041 0.094,-0.081 0.141,-0.122 0.01,-0.008 0.019,-0.018 0.028,-0.028 -0.001,-0.004 -0.003,-0.009 -0.004,-0.013 h -0.068 -3.586 c -0.005,0 -0.009,10e-4 -0.014,0 -0.042,-0.007 -0.074,0.011 -0.106,0.036 -0.081,0.064 -0.164,0.126 -0.246,0.189 -0.512,0.399 -1.003,0.821 -1.486,1.254 -0.555,0.498 -1.096,1.009 -1.627,1.531 -1.161,1.138 -2.285,2.311 -3.378,3.514 -0.19,0.209 -0.376,0.422 -0.569,0.628 -0.422,0.448 -0.873,0.863 -1.356,1.242 -0.018,0.014 -0.035,0.029 -0.055,0.046 0.012,0.011 0.018,0.02 0.027,0.026 0.237,0.166 0.483,0.311 0.752,0.416 0.151,0.059 0.306,0.102 0.465,0.124 0.287,0.038 0.559,-0.008 0.815,-0.143 0.122,-0.065 0.237,-0.142 0.342,-0.231 0.278,-0.235 0.571,-0.448 0.874,-0.649 0.344,-0.227 0.698,-0.435 1.072,-0.607 M -47.791,24.99 h 2.87 c -0.554,-0.479 -1.127,-0.937 -1.733,-1.353 -0.055,-0.038 -0.112,-0.073 -0.169,-0.107 -0.324,-0.194 -0.632,-0.411 -0.932,-0.639 -0.489,-0.372 -0.956,-0.769 -1.414,-1.179 -0.455,-0.408 -0.897,-0.83 -1.335,-1.258 z m -7.76,-12.976 3.866,6.465 h 46.958 c -0.018,0.012 -0.037,0.025 -0.056,0.036 -0.08,0.045 -0.162,0.087 -0.241,0.133 -0.282,0.168 -0.544,0.361 -0.801,0.563 -0.461,0.362 -0.9,0.752 -1.327,1.152 -0.62,0.579 -1.219,1.18 -1.805,1.794 -0.384,0.402 -0.764,0.808 -1.133,1.225 -0.161,0.182 -0.331,0.357 -0.509,0.524 -0.317,0.301 -0.656,0.576 -1.026,0.811 -0.162,0.104 -0.331,0.194 -0.506,0.273 h 4.945 L 0.581,12.014 Z m 53.186,8.298 -4.12,6.885 c 0.743,2.215 0.731,4.661 0.703,5.483 l 4.962,3.49 C 0.046,26.626 -1.678,21.801 -2.365,20.312 M 5.97,40.864 C 6.491,40.793 6.824,40.221 6.835,40.204 6.902,40.106 6.936,39.995 6.927,39.888 6.918,39.792 6.876,39.713 6.808,39.665 6.74,39.617 6.651,39.604 6.557,39.63 6.454,39.658 6.36,39.727 6.287,39.83 6.282,39.835 5.874,40.37 5.97,40.864 m -16.558,-6.812 -3.593,6.003 c 1.03,2.352 0.865,6.092 0.78,7.291 l 3.946,4.349 C -7.961,40.94 -9.731,35.8 -10.588,34.052 m -21.81,16.68 c 3.094,1.357 6.669,1.374 9.776,0.049 l 15.167,-25.34 h -5.561 c -0.254,0.157 -0.5,0.326 -0.732,0.516 -0.084,0.068 -0.168,0.135 -0.26,0.193 -0.382,0.243 -0.796,0.322 -1.241,0.235 -0.23,-0.045 -0.445,-0.128 -0.652,-0.234 -0.207,-0.107 -0.401,-0.235 -0.585,-0.377 -0.02,-0.015 -0.037,-0.034 -0.066,-0.042 -0.094,0.033 -0.185,0.074 -0.277,0.117 -0.493,0.238 -0.945,0.539 -1.367,0.887 -0.137,0.114 -0.28,0.217 -0.438,0.298 -0.261,0.133 -0.536,0.202 -0.829,0.202 -0.202,0 -0.398,-0.033 -0.591,-0.09 -0.275,-0.082 -0.53,-0.208 -0.772,-0.359 -0.162,-0.101 -0.318,-0.213 -0.466,-0.332 -0.018,-0.014 -0.032,-0.034 -0.061,-0.035 -0.01,0.006 -0.022,0.012 -0.034,0.019 -0.282,0.178 -0.576,0.332 -0.889,0.453 -0.282,0.107 -0.545,0.253 -0.803,0.41 -0.363,0.221 -0.711,0.466 -1.036,0.74 -0.116,0.099 -0.241,0.186 -0.373,0.262 -0.275,0.158 -0.57,0.255 -0.886,0.28 -0.214,0.017 -0.427,0 -0.638,-0.044 -0.285,-0.06 -0.553,-0.165 -0.811,-0.3 -0.141,-0.073 -0.267,-0.168 -0.398,-0.255 v 8.784 c 0.929,0.058 1.643,0.379 1.643,0.77 0,0.379 -0.67,3.031 -1.558,3.671 -0.044,0.036 -0.816,0.632 -1.841,0.048 0,0 -1.153,-0.668 -0.562,-1.608 0,0 0.124,-0.283 0.627,-0.081 0.096,0.038 0.335,0.159 0.41,0.506 l -0.012,-0.227 c -0.007,-0.324 -0.45,-0.503 -0.471,-0.514 -0.291,-0.811 -0.468,-1.601 -0.468,-1.795 0,-0.393 0.721,-0.715 1.656,-0.77 v -8.908 c -0.028,0.017 -0.057,0.033 -0.084,0.05 -0.386,0.235 -0.754,0.493 -1.098,0.784 -0.127,0.107 -0.262,0.202 -0.407,0.285 -0.276,0.159 -0.572,0.26 -0.889,0.294 -0.251,0.026 -0.5,0.009 -0.747,-0.044 -0.299,-0.064 -0.581,-0.174 -0.851,-0.314 -0.282,-0.147 -0.546,-0.323 -0.798,-0.517 -0.019,-0.015 -0.036,-0.035 -0.064,-0.04 -0.022,0.012 -0.043,0.025 -0.065,0.037 -0.115,0.067 -0.229,0.136 -0.346,0.2 -0.164,0.09 -0.331,0.172 -0.505,0.237 -0.229,0.086 -0.451,0.186 -0.666,0.3 -0.621,0.327 -1.198,0.718 -1.737,1.166 -0.051,0.043 -0.102,0.085 -0.156,0.125 -0.424,0.32 -0.894,0.522 -1.428,0.566 -0.018,0.001 -0.036,0.008 -0.053,0.012 h -0.289 c -0.023,-0.004 -0.045,-0.011 -0.068,-0.013 -0.342,-0.027 -0.669,-0.114 -0.986,-0.242 -0.364,-0.147 -0.701,-0.342 -1.024,-0.566 -0.365,-0.254 -0.703,-0.541 -1.023,-0.848 -0.414,-0.396 -0.796,-0.823 -1.154,-1.27 -0.348,-0.434 -0.675,-0.883 -0.974,-1.354 -0.015,-0.022 -0.031,-0.045 -0.049,-0.066 -0.219,-0.269 -0.452,-0.527 -0.696,-0.773 -0.15,-0.152 -0.316,-0.284 -0.47,-0.429 h -3.097 z m 1.198,2.004 c 2.402,0.674 4.986,0.682 7.392,0.027 l 0.606,-1.013 c -1.36,0.473 -2.782,0.714 -4.25,0.714 -1.507,0 -2.967,-0.252 -4.359,-0.75 z m 1.509,2.522 2.194,3.669 2.185,-3.653 c -1.45,0.194 -2.932,0.186 -4.379,-0.016 m -0.451,-0.752 c 1.738,0.307 3.542,0.31 5.283,0.015 l 0.562,-0.941 c -2.104,0.465 -4.31,0.456 -6.413,-0.026 z m -15.389,-2.811 3.946,-4.349 c -0.086,-1.199 -0.251,-4.941 0.78,-7.294 l -3.591,-6.005 c -0.857,1.744 -2.631,6.884 -1.135,17.648 M -61.813,40.216 c 0.003,0.006 0.333,0.577 0.857,0.648 0.096,-0.494 -0.315,-1.029 -0.322,-1.04 -0.07,-0.097 -0.162,-0.166 -0.266,-0.194 -0.097,-0.026 -0.182,-0.013 -0.251,0.035 -0.067,0.048 -0.109,0.127 -0.118,0.223 -0.009,0.107 0.024,0.218 0.1,0.328 m 7.646,-4.046 4.963,-3.49 c -0.029,-0.823 -0.04,-3.274 0.706,-5.492 l -4.119,-6.887 c -0.685,1.478 -2.417,6.304 -1.55,15.869 M 10.845,26.088 C 10.821,25.333 10.616,23.983 10.268,22.293 10.233,22.852 10.05,23.416 9.845,23.809 9.576,24.371 9.201,24.371 9.014,24.935 8.826,25.498 8.182,25.686 7.807,26.142 7.431,26.597 6.68,27.16 6.68,27.16 6.412,26.517 6.331,23.998 6.492,23.622 6.55,23.506 6.59,23.3 6.629,23.064 6.353,23.169 6.113,23.251 6.113,23.251 5.631,22.152 6.193,21.027 6.382,20.008 6.436,19.686 6.837,19.069 7.025,18.694 7.213,18.319 7.133,17.97 7.319,17.675 7.494,17.426 7.901,17.394 8.323,17.005 8.377,16.31 8.446,15.715 8.55,15.545 8.192,14.346 7.797,13.122 7.373,11.906 7.342,12.304 7.215,12.738 6.926,13.195 6.443,13.946 6.363,13.893 6.095,14.698 5.72,15.716 4.968,15.716 4.86,16.734 c 0,0 -0.267,-1.206 -0.348,-2.225 C 4.405,13.491 4.593,13.115 4.673,12.553 4.743,12.183 4.609,11.772 4.506,11.304 4.481,11.847 4.37,12.601 4.137,12.927 3.843,13.303 3.949,14.054 3.949,14.054 3.771,13.699 2.924,12.51 2.516,12.158 l -0.348,0.581 c 4.892,8.554 3.752,23.193 3.567,25.199 0.79,0.166 0.653,0.573 0.653,0.573 L 6.233,39.47 c 0.076,-0.056 0.159,-0.1 0.247,-0.124 0.058,-0.015 0.115,-0.023 0.171,-0.023 0.118,0 0.23,0.034 0.325,0.101 0.141,0.099 0.227,0.255 0.242,0.439 0.001,0.011 -0.003,0.022 -0.003,0.033 0.352,-0.383 0.713,-0.724 0.999,-0.807 0.67,-0.188 1.233,-0.483 1.314,-0.751 v 0.007 c 0.427,-1.731 0.736,-3.561 0.946,-5.325 -0.002,0.003 -0.004,0.007 -0.007,0.01 -0.751,0.831 -0.939,2.412 -2.602,3.271 0,0 0.08,-0.671 0,-1.127 C 7.797,34.886 7.698,34.253 7.708,33.712 7.13,34.146 6.513,34.71 6.434,34.964 c 0,0 -0.268,-2.305 0.376,-3.539 0.669,-1.206 0.669,-1.85 1.394,-2.117 0.751,-0.296 0.859,-0.483 1.126,-0.671 0.295,-0.187 0.751,-0.455 1.127,-0.455 0.09,0 0.172,-0.059 0.245,-0.146 0.038,-0.191 0.089,-0.379 0.149,-0.565 0.006,-0.497 0.004,-0.962 -0.006,-1.383 m 6.703,-1.792 c 0,0 -1.047,-0.187 -1.502,-0.562 -0.225,-0.185 -0.546,-0.278 -0.868,-0.36 0.153,0.313 0.256,0.703 0.221,1.186 -0.107,1.127 -0.107,2.976 -0.107,2.976 0,0 -0.375,-1.126 -0.912,-1.394 -0.563,-0.268 -1.581,-0.643 -1.77,-1.019 -0.187,-0.375 -0.939,-0.375 -1.233,-1.502 -0.269,-1.099 -0.269,-1.018 -0.455,-1.393 -0.059,-0.116 -0.145,-0.244 -0.237,-0.38 0.352,1.695 0.615,3.441 0.615,4.937 0,0.262 -0.008,0.511 -0.011,0.768 0.278,0.221 0.647,0.621 0.647,0.621 0.239,0.391 3.113,1.375 3.515,2.152 0.403,0.751 0.616,1.287 0.805,1.609 0.16,0.348 0.536,1.554 0.455,2.09 -0.054,0.536 -0.134,2.547 -0.321,2.869 0,0 -0.886,-0.456 -1.181,-0.911 -0.082,-0.123 -0.193,-0.229 -0.319,-0.327 0.002,0.268 -0.036,0.542 -0.135,0.805 -0.402,0.993 -1.019,2.306 -1.019,2.306 0,0 -0.537,-0.831 -0.832,-1.341 C 12.422,36.46 11.938,36.381 11.857,36.005 11.805,35.604 11.215,35.362 11,34.584 c -0.078,-0.274 -0.122,-0.47 -0.147,-0.62 -0.212,1.658 -0.488,3.167 -0.8,4.526 0.137,0.436 0.294,1.385 0.681,1.698 0.563,0.483 0.643,1.125 0.643,1.877 0,0.751 -0.16,1.287 -0.267,1.769 -0.081,0.456 -1.503,2.413 -1.395,2.975 0,0 -0.698,-1.583 -0.965,-2.205 -0.694,0.692 -1.767,1.506 -2.359,1.801 -0.352,0.613 -0.713,1.228 -1.084,1.843 0.018,0.181 0.058,0.566 0.116,0.976 0.107,0.563 0.295,1.502 0.107,1.957 -0.187,0.455 -0.563,0.831 -0.751,1.394 -0.188,0.563 -0.268,0.938 -0.751,1.394 -0.456,0.483 -1.126,1.126 -1.126,1.126 0,0 -0.183,-0.829 -0.355,-1.5 -0.172,0.089 -0.347,0.151 -0.476,0.186 -0.11,0.044 -0.347,0.165 -0.607,0.305 -0.323,0.439 -0.637,0.855 -0.932,1.223 0.166,0.109 0.28,0.287 0.279,0.506 0,0.349 -0.268,0.617 -0.618,0.617 -0.347,0 -0.616,-0.268 -0.616,-0.617 0,-0.348 0.269,-0.616 0.616,-0.616 0.128,0 0.238,0.045 0.334,0.107 0.084,-0.131 0.329,-0.514 0.692,-1.087 -0.301,0.165 -0.594,0.333 -0.731,0.419 -0.24,0.161 -0.374,-1.679 0.185,-2.699 -0.089,0.024 -0.18,0.049 -0.264,0.07 -1.126,0.295 -2.144,0.187 -2.144,0.187 0.267,0 0.939,-0.724 1.018,-1.099 0.109,-0.375 0.752,-1.234 1.127,-1.394 0.375,-0.187 1.02,-0.67 1.395,-1.045 C 2.174,48.29 3.338,48.205 4.167,48.202 4.496,48.041 4.8,47.945 4.989,47.998 5.335,47.401 5.68,46.796 6.018,46.192 5.912,45.732 5.743,44.91 5.8,44.588 c 0,-10e-4 0,-0.003 0.001,-0.004 H 5.8 C 5.344,44.665 3.762,45.04 3.762,45.04 3.915,44.122 4.179,43.192 4.575,42.704 4.488,42.62 4.422,42.516 4.398,42.388 4.365,42.198 4.415,41.99 4.531,41.824 4.548,41.798 4.89,41.271 5.415,41.09 l -7.667,-5.392 c 0.608,9.12 -0.488,17.859 -0.752,19.765 0.932,0.351 0.68,0.77 0.68,0.77 l -0.364,0.907 c 0.099,-0.044 0.2,-0.072 0.3,-0.072 0.166,0 0.325,0.062 0.438,0.185 0.23,0.255 0.18,0.679 -0.103,0.936 -0.015,0.017 -0.246,0.267 -0.592,0.422 l 1.094,0.16 0.627,2.641 h -0.003 l 0.002,10e-4 -2.571,-0.872 -0.056,-1.103 c -0.185,0.326 -0.452,0.531 -0.464,0.539 -0.295,0.267 -0.722,0.276 -0.953,0.023 -0.231,-0.255 -0.181,-0.68 0.107,-0.941 0.02,-0.022 0.432,-0.406 0.946,-0.498 0.009,-0.025 0.021,-0.048 0.036,-0.07 l -12.855,-14.168 -8.538,14.265 c 0.526,3.459 -1.33,8.709 -1.404,8.918 0.108,0.458 0.171,0.942 0.15,1.42 0.587,0.195 0.764,0.651 0.809,0.806 0.006,0.009 0,0.014 0.006,0.022 -0.003,0.003 0.008,0.015 0.005,0.017 0.002,0.006 0.004,0.017 0.004,0.017 0,0 -0.607,0.753 -0.985,1.101 0.197,-0.042 0.376,-0.057 0.462,-0.057 0.034,0 0.055,0.001 0.059,0.001 0.396,0 0.719,0.281 0.719,0.626 -0.001,0.344 -0.323,0.623 -0.704,0.623 h -0.003 c -0.022,0.001 -0.362,0.03 -0.721,-0.087 l 0.7,0.855 -1.317,2.374 v -0.003 l -0.001,0.003 -1.312,-2.378 0.704,-0.854 c -0.358,0.116 -0.694,0.088 -0.709,0.087 -0.21,0 -0.408,-0.079 -0.544,-0.216 -0.113,-0.113 -0.175,-0.259 -0.174,-0.409 0,-0.151 0.062,-0.296 0.175,-0.41 0.136,-0.135 0.334,-0.213 0.536,-0.213 -10e-4,0 0.021,-0.002 0.06,-0.002 0.073,0 0.216,0.013 0.376,0.04 -0.22,-0.203 -0.498,-0.517 -0.691,-0.743 -0.08,-0.072 -0.146,-0.145 -0.184,-0.217 -0.027,-0.033 -0.046,-0.055 -0.046,-0.055 0,0 0.01,-0.039 0.029,-0.092 0.004,-0.02 -0.006,-0.039 0.004,-0.058 0.122,-0.232 0.254,-0.376 0.394,-0.472 -0.979,-1.816 -3.389,-7.083 -1.995,-12.568 l -7.38,-12.341 -12.904,14.222 c 0.554,0.059 1.008,0.49 1.025,0.508 0.155,0.141 0.248,0.332 0.258,0.525 0.008,0.16 -0.045,0.31 -0.147,0.422 -0.1,0.111 -0.245,0.177 -0.404,0.184 -0.186,0.003 -0.393,-0.066 -0.537,-0.198 -0.019,-0.013 -0.288,-0.22 -0.475,-0.548 l -0.055,1.103 -2.572,0.872 10e-4,-10e-4 h -0.002 l 0.627,-2.641 1.095,-0.16 c -0.345,-0.154 -0.574,-0.401 -0.583,-0.412 -0.155,-0.14 -0.249,-0.332 -0.259,-0.525 -0.006,-0.16 0.045,-0.31 0.147,-0.421 0.101,-0.112 0.245,-0.177 0.405,-0.185 0.011,0 0.021,-10e-4 0.031,-10e-4 0.103,0 0.204,0.028 0.3,0.071 l -0.362,-0.905 c 0,0 -0.252,-0.419 0.679,-0.77 -0.263,-1.906 -1.361,-10.645 -0.751,-19.765 l -7.667,5.392 c 0.525,0.181 0.866,0.707 0.88,0.728 0.107,0.154 0.158,0.334 0.143,0.509 -0.013,0.148 -0.081,0.269 -0.176,0.365 0.403,0.485 0.668,1.422 0.824,2.348 0,0 -1.583,-0.375 -2.039,-0.456 h -0.001 c 0,10e-4 0.001,0.003 0.001,0.004 0.057,0.322 -0.112,1.144 -0.217,1.604 0.338,0.604 0.682,1.209 1.028,1.806 0.189,-0.053 0.493,0.043 0.822,0.204 0.829,0.003 1.993,0.088 2.363,0.456 0.375,0.375 1.019,0.858 1.394,1.045 0.375,0.16 1.019,1.019 1.126,1.394 0.08,0.375 0.751,1.099 1.02,1.099 0,0 -1.02,0.108 -2.146,-0.187 -0.083,-0.021 -0.174,-0.046 -0.263,-0.07 0.559,1.02 0.425,2.86 0.184,2.699 -0.136,-0.086 -0.429,-0.254 -0.73,-0.419 0.362,0.573 0.608,0.956 0.692,1.087 0.097,-0.062 0.206,-0.107 0.333,-0.107 0.349,0 0.617,0.268 0.617,0.616 0,0.349 -0.268,0.617 -0.617,0.617 -0.349,0 -0.616,-0.268 -0.616,-0.617 -10e-4,-0.219 0.112,-0.397 0.278,-0.506 -0.295,-0.368 -0.608,-0.784 -0.932,-1.223 -0.26,-0.14 -0.497,-0.261 -0.607,-0.305 -0.129,-0.035 -0.304,-0.097 -0.476,-0.186 -0.172,0.671 -0.355,1.5 -0.355,1.5 0,0 -0.67,-0.643 -1.126,-1.126 -0.482,-0.456 -0.563,-0.831 -0.751,-1.394 -0.188,-0.563 -0.564,-0.939 -0.751,-1.394 -0.188,-0.455 0,-1.394 0.106,-1.957 0.059,-0.41 0.099,-0.795 0.117,-0.976 -0.37,-0.615 -0.733,-1.23 -1.083,-1.843 -0.593,-0.295 -1.665,-1.109 -2.36,-1.801 -0.266,0.622 -0.965,2.205 -0.965,2.205 0.108,-0.562 -1.314,-2.519 -1.395,-2.975 -0.107,-0.482 -0.268,-1.018 -0.268,-1.769 0,-0.752 0.081,-1.394 0.644,-1.877 0.387,-0.313 0.544,-1.262 0.681,-1.698 -0.312,-1.359 -0.587,-2.868 -0.8,-4.526 -0.026,0.15 -0.07,0.346 -0.147,0.62 -0.215,0.778 -0.804,1.02 -0.857,1.421 -0.081,0.376 -0.565,0.455 -1.047,1.421 -0.296,0.51 -0.832,1.341 -0.832,1.341 0,0 -0.617,-1.313 -1.019,-2.306 -0.099,-0.263 -0.136,-0.537 -0.134,-0.805 -0.126,0.098 -0.239,0.204 -0.32,0.327 -0.295,0.455 -1.18,0.911 -1.18,0.911 -0.188,-0.322 -0.268,-2.333 -0.322,-2.869 -0.081,-0.536 0.295,-1.742 0.455,-2.09 0.189,-0.322 0.403,-0.858 0.805,-1.609 0.402,-0.777 3.276,-1.761 3.516,-2.152 0,0 0.368,-0.4 0.646,-0.621 -0.003,-0.257 -0.011,-0.506 -0.011,-0.768 0,-1.496 0.263,-3.243 0.615,-4.937 -0.093,0.136 -0.178,0.264 -0.237,0.38 -0.186,0.375 -0.186,0.294 -0.455,1.393 -0.294,1.127 -1.046,1.127 -1.233,1.502 -0.189,0.376 -1.207,0.751 -1.771,1.019 -0.536,0.268 -0.911,1.394 -0.911,1.394 0,0 0,-1.849 -0.107,-2.976 -0.034,-0.483 0.067,-0.873 0.222,-1.186 -0.323,0.082 -0.644,0.175 -0.869,0.36 -0.455,0.375 -1.502,0.562 -1.502,0.562 -0.08,-0.375 0.484,-2.438 0.564,-2.975 0.106,-0.563 0.832,-1.689 1.127,-1.957 0.267,-0.295 0.643,-0.751 1.287,-1.394 0.67,-0.67 2.352,-0.804 4.211,-1.421 0.71,-0.235 1.104,-0.676 1.309,-0.986 0.068,-0.239 0.126,-0.449 0.165,-0.6 0.208,-0.814 0.482,-1.804 0.804,-2.873 -0.52,0.698 -1.421,0.862 -2.464,1.024 -0.644,0.108 -3.165,0.751 -3.165,0.751 0.602,-0.443 0.97,-1.677 1.344,-2.79 -1.451,0.296 -2.927,0.002 -2.927,0.002 0.269,-0.187 2.226,-1.876 2.494,-2.814 0.295,-0.911 1.315,-2.6 1.582,-2.788 0.296,-0.188 1.128,-1.206 1.691,-1.769 0.563,-0.563 2.788,-0.268 3.54,-0.268 0.472,0 1.227,-0.38 1.705,-0.544 0.475,-0.648 1.293,-1.498 2.366,-2.467 -0.612,0.217 -1.687,0.906 -2.056,1.348 -0.365,0.494 0.052,-1.65 0.469,-2.345 -0.606,0.056 -1.257,0.183 -1.625,0.467 -0.617,0.484 -0.081,-1.689 0.59,-2.304 1.443,-1.286 1.311,-1.49 1.541,-1.577 -1.216,-0.245 -2.906,-0.658 -3.421,-0.353 -0.671,0.376 0.75,-0.938 1.61,-1.26 1.232,-0.456 1.072,-1.26 2.413,-1.689 1.422,-0.456 2.924,-1.019 3.755,-0.858 0.643,0.134 1.127,0.429 2.038,0.51 0.812,0.099 2.193,1.181 3.763,1.379 1.508,-0.925 3.048,-1.786 4.55,-2.507 0.066,-0.032 0.152,-0.071 0.239,-0.111 -0.161,-0.014 -0.334,-0.034 -0.53,-0.074 -0.562,-0.134 -2.869,-0.644 -3.432,-0.375 -0.51,0.266 0.581,-1.237 1.269,-1.804 -1.096,-0.207 -2.622,-0.365 -3.147,-0.234 -0.751,0.161 1.502,-2.01 2.386,-2.252 0.038,-0.01 0.069,-0.019 0.105,-0.03 -0.725,-0.236 -1.382,-0.41 -1.711,-0.389 -0.777,0.054 2.468,-2.064 3.353,-1.93 2.843,0.402 5.525,-0.562 6.839,-0.026 1.18,0.456 1.877,0.777 2.467,0.965 0.59,0.214 0.912,0.751 1.287,1.019 0.283,0.221 0.415,0.649 1.39,1.115 0.079,-0.02 0.106,-0.02 0.106,-0.02 0,0 1.809,-0.134 3.016,-0.028 -0.338,-0.131 -0.754,-0.356 -1.224,-0.734 -1.467,-0.459 -2.648,-0.856 -3.02,-1.043 -1.128,-0.562 -3.997,-3.082 -4.748,-3.913 0,0 2.413,0.188 2.789,0.188 0.376,0 1.207,1.662 1.582,1.956 0.108,0.078 0.721,0.392 1.624,0.812 -1.653,-2.654 0.753,-4.824 0.753,-4.824 -0.644,0.75 0.08,2.063 0.08,2.063 l 1.314,-0.83 c -1.649,2.824 0.903,4.709 1.748,5.234 0.089,0.034 0.177,0.067 0.267,0.1 0.266,-0.345 0.631,-0.566 1.04,-0.566 0.394,0 0.743,0.206 1.006,0.528 0.171,-0.064 0.337,-0.13 0.504,-0.194 0.983,-0.665 3.079,-2.479 1.546,-5.102 l 1.313,0.83 c 0,0 0.725,-1.313 0.081,-2.063 0,0 2.353,2.119 0.812,4.731 0.793,-0.373 1.325,-0.647 1.425,-0.719 0.375,-0.294 1.207,-1.956 1.582,-1.956 0.376,0 2.79,-0.188 2.79,-0.188 -0.751,0.831 -3.621,3.351 -4.748,3.913 -0.355,0.177 -1.435,0.545 -2.8,0.975 -0.503,0.417 -0.949,0.663 -1.305,0.802 1.207,-0.106 2.996,-10e-4 2.996,-10e-4 0,0 0.037,0.003 0.051,0.012 0.875,-0.447 1.054,-0.866 1.325,-1.078 0.375,-0.268 0.697,-0.805 1.287,-1.019 0.589,-0.188 1.287,-0.509 2.467,-0.965 1.313,-0.536 3.996,0.428 6.839,0.026 0.885,-0.134 4.131,1.984 3.353,1.93 -0.329,-0.021 -0.986,0.153 -1.711,0.389 0.037,0.011 0.067,0.02 0.104,0.03 0.886,0.242 3.139,2.413 2.388,2.252 -0.526,-0.131 -2.052,0.027 -3.148,0.234 0.689,0.567 1.779,2.07 1.27,1.804 -0.564,-0.269 -2.87,0.241 -3.434,0.375 -0.195,0.04 -0.368,0.06 -0.53,0.074 0.089,0.04 0.175,0.079 0.24,0.111 1.502,0.721 3.042,1.582 4.55,2.507 1.57,-0.198 2.951,-1.28 3.764,-1.379 0.911,-0.081 1.394,-0.376 2.037,-0.51 0.832,-0.161 2.334,0.402 3.756,0.858 1.339,0.429 1.18,1.233 2.413,1.689 0.858,0.322 2.28,1.636 1.609,1.26 -0.515,-0.305 -2.205,0.108 -3.421,0.353 0.231,0.087 0.098,0.291 1.541,1.577 0.67,0.615 1.207,2.788 0.59,2.304 C 4.759,-0.387 4.108,-0.514 3.502,-0.57 3.919,0.125 4.336,2.269 3.972,1.775 3.603,1.333 2.526,0.644 1.915,0.427 2.988,1.396 3.807,2.246 4.28,2.894 c 0.479,0.164 1.235,0.544 1.706,0.544 0.751,0 2.977,-0.295 3.54,0.268 0.563,0.563 1.395,1.581 1.691,1.769 0.267,0.188 1.287,1.877 1.582,2.788 0.268,0.938 2.225,2.627 2.494,2.814 0,0 -1.476,0.294 -2.927,-0.002 0.373,1.113 0.742,2.347 1.344,2.79 0,0 -2.521,-0.643 -3.165,-0.751 -1.043,-0.162 -1.943,-0.326 -2.464,-1.024 0.322,1.069 0.597,2.059 0.805,2.873 0.038,0.151 0.096,0.361 0.164,0.6 0.205,0.31 0.599,0.751 1.309,0.986 1.859,0.617 3.541,0.751 4.211,1.421 0.644,0.643 1.02,1.099 1.287,1.394 0.295,0.268 1.02,1.394 1.127,1.957 0.08,0.537 0.644,2.6 0.564,2.975" /></g><g
           transform="translate(173.3171,158.9753)"
           id="g164"><path
             id="path166"
             style="fill:#111e60;fill-opacity:1;fill-rule:nonzero;stroke:none"
             d="m 0,0 c -0.322,0 -0.563,-0.241 -0.563,-0.536 0,-0.322 0.241,-0.564 0.563,-0.564 0.295,0 0.563,0.242 0.563,0.564 C 0.563,-0.241 0.295,0 0,0" /></g><g
           transform="translate(176.4821,155.0915)"
           id="g168"><path
             id="path170"
             style="fill:#111e60;fill-opacity:1;fill-rule:nonzero;stroke:none"
             d="m 0,0 c -0.322,0 -0.562,-0.269 -0.562,-0.563 0,-0.323 0.241,-0.563 0.562,-0.563 0.295,0 0.563,0.24 0.563,0.563 C 0.563,-0.269 0.295,0 0,0" /></g><g
           transform="translate(183.8317,167.3678)"
           id="g172"><path
             id="path174"
             style="fill:#111e60;fill-opacity:1;fill-rule:nonzero;stroke:none"
             d="m 0,0 c -0.295,0 -0.562,-0.242 -0.562,-0.563 0,-0.295 0.267,-0.563 0.562,-0.563 0.321,0 0.563,0.268 0.563,0.563 C 0.563,-0.242 0.321,0 0,0" /></g><g
           transform="translate(187.7761,164.5788)"
           id="g176"><path
             id="path178"
             style="fill:#111e60;fill-opacity:1;fill-rule:nonzero;stroke:none"
             d="m 0,0 c 0,-0.349 0.296,-0.617 0.617,-0.617 0.35,0 0.617,0.268 0.617,0.617 0,0.321 -0.267,0.616 -0.617,0.616 C 0.296,0.616 0,0.321 0,0" /></g><g
           transform="translate(189.2214,177.7394)"
           id="g180"><path
             id="path182"
             style="fill:#111e60;fill-opacity:1;fill-rule:nonzero;stroke:none"
             d="M 0,0 C 0.35,0 0.617,0.267 0.617,0.616 0.617,0.938 0.349,1.232 0,1.232 -0.322,1.232 -0.616,0.938 -0.616,0.616 -0.616,0.268 -0.322,0 0,0" /></g><g
           transform="translate(191.1013,190.1247)"
           id="g184"><path
             id="path186"
             style="fill:#111e60;fill-opacity:1;fill-rule:nonzero;stroke:none"
             d="m 0,0 c -0.35,0 -0.617,-0.268 -0.617,-0.617 0,-0.321 0.267,-0.617 0.617,-0.617 0.349,0 0.616,0.295 0.616,0.617 C 0.616,-0.268 0.349,0 0,0" /></g><g
           transform="translate(194.5319,200.1789)"
           id="g188"><path
             id="path190"
             style="fill:#111e60;fill-opacity:1;fill-rule:nonzero;stroke:none"
             d="M 0,0 C 0.349,0 0.616,0.268 0.616,0.59 0.616,0.938 0.349,1.206 0,1.206 -0.322,1.206 -0.617,0.938 -0.617,0.59 -0.617,0.268 -0.322,0 0,0" /></g><g
           transform="translate(190.1608,199.0549)"
           id="g192"><path
             id="path194"
             style="fill:#111e60;fill-opacity:1;fill-rule:nonzero;stroke:none"
             d="M 0,0 C 0.35,0 0.618,0.268 0.617,0.616 0.617,0.937 0.35,1.232 0,1.232 -0.348,1.232 -0.616,0.937 -0.616,0.616 -0.616,0.268 -0.348,0 0,0" /></g><g
           transform="translate(186.488,209.0744)"
           id="g196"><path
             id="path198"
             style="fill:#111e60;fill-opacity:1;fill-rule:nonzero;stroke:none"
             d="m 0,0 c 0,0.322 -0.268,0.59 -0.616,0.59 -0.322,0 -0.617,-0.268 -0.617,-0.59 0,-0.348 0.295,-0.616 0.617,-0.616 C -0.268,-0.616 0,-0.348 0,0" /></g><g
           transform="translate(189.1413,211.0592)"
           id="g200"><path
             id="path202"
             style="fill:#111e60;fill-opacity:1;fill-rule:nonzero;stroke:none"
             d="M 0,0 C 0.35,0 0.617,0.269 0.617,0.617 0.617,0.938 0.349,1.233 0,1.233 -0.349,1.233 -0.617,0.937 -0.617,0.617 -0.617,0.269 -0.349,0 0,0" /></g><g
           transform="translate(195.3112,189.4001)"
           id="g204"><path
             id="path206"
             style="fill:#111e60;fill-opacity:1;fill-rule:nonzero;stroke:none"
             d="m 0,0 c 0,-0.321 0.269,-0.589 0.617,-0.589 0.322,0 0.59,0.268 0.59,0.589 0,0.322 -0.268,0.591 -0.59,0.591 C 0.269,0.591 0,0.322 0,0" /></g><g
           transform="translate(136.5788,158.9753)"
           id="g208"><path
             id="path210"
             style="fill:#111e60;fill-opacity:1;fill-rule:nonzero;stroke:none"
             d="m 0,0 c -0.295,0 -0.563,-0.241 -0.563,-0.536 0,-0.322 0.268,-0.564 0.563,-0.564 0.322,0 0.562,0.242 0.562,0.564 C 0.562,-0.241 0.322,0 0,0" /></g><g
           transform="translate(133.9763,154.528)"
           id="g212"><path
             id="path214"
             style="fill:#111e60;fill-opacity:1;fill-rule:nonzero;stroke:none"
             d="m 0,0 c 0,0.294 -0.24,0.563 -0.562,0.563 -0.295,0 -0.564,-0.269 -0.564,-0.563 0,-0.322 0.269,-0.563 0.564,-0.563 C -0.241,-0.563 0,-0.322 0,0" /></g><g
           transform="translate(126.0642,167.3678)"
           id="g216"><path
             id="path218"
             style="fill:#111e60;fill-opacity:1;fill-rule:nonzero;stroke:none"
             d="m 0,0 c -0.321,0 -0.563,-0.242 -0.563,-0.563 0,-0.295 0.241,-0.563 0.563,-0.563 0.295,0 0.562,0.268 0.562,0.563 C 0.562,-0.242 0.295,0 0,0" /></g><g
           transform="translate(121.5026,163.9616)"
           id="g220"><path
             id="path222"
             style="fill:#111e60;fill-opacity:1;fill-rule:nonzero;stroke:none"
             d="M 0,0 C 0.321,0 0.616,0.269 0.616,0.617 0.616,0.938 0.321,1.233 0,1.233 -0.35,1.233 -0.617,0.938 -0.617,0.617 -0.617,0.269 -0.35,0 0,0" /></g><g
           transform="translate(120.6735,178.9718)"
           id="g224"><path
             id="path226"
             style="fill:#111e60;fill-opacity:1;fill-rule:nonzero;stroke:none"
             d="m 0,0 c -0.348,0 -0.616,-0.294 -0.616,-0.616 0,-0.35 0.267,-0.616 0.616,-0.616 0.322,0 0.617,0.267 0.617,0.616 C 0.617,-0.294 0.322,0 0,0" /></g><g
           transform="translate(117.4519,177.2316)"
           id="g228"><path
             id="path230"
             style="fill:#111e60;fill-opacity:1;fill-rule:nonzero;stroke:none"
             d="m 0,0 c 0,0.349 -0.268,0.616 -0.617,0.616 -0.32,0 -0.616,-0.267 -0.616,-0.616 0,-0.349 0.295,-0.617 0.616,-0.617 C -0.268,-0.617 0,-0.349 0,0" /></g><g
           transform="translate(118.7946,188.8908)"
           id="g232"><path
             id="path234"
             style="fill:#111e60;fill-opacity:1;fill-rule:nonzero;stroke:none"
             d="M 0,0 C 0.349,0 0.617,0.295 0.617,0.617 0.617,0.966 0.349,1.234 0,1.234 -0.349,1.234 -0.616,0.966 -0.616,0.617 -0.616,0.295 -0.349,0 0,0" /></g><g
           transform="translate(115.364,200.1789)"
           id="g236"><path
             id="path238"
             style="fill:#111e60;fill-opacity:1;fill-rule:nonzero;stroke:none"
             d="M 0,0 C 0.322,0 0.617,0.268 0.617,0.59 0.617,0.938 0.322,1.206 0,1.206 -0.349,1.206 -0.616,0.938 -0.616,0.59 -0.616,0.268 -0.349,0 0,0" /></g><g
           transform="translate(119.7351,200.2873)"
           id="g240"><path
             id="path242"
             style="fill:#111e60;fill-opacity:1;fill-rule:nonzero;stroke:none"
             d="M 0,0 C -0.35,0 -0.617,-0.295 -0.617,-0.616 -0.618,-0.964 -0.35,-1.232 0,-1.232 c 0.348,0 0.616,0.267 0.616,0.616 C 0.616,-0.295 0.348,0 0,0" /></g><g
           transform="translate(123.4079,209.0744)"
           id="g244"><path
             id="path246"
             style="fill:#111e60;fill-opacity:1;fill-rule:nonzero;stroke:none"
             d="m 0,0 c 0,-0.348 0.268,-0.616 0.616,-0.616 0.322,0 0.617,0.268 0.617,0.616 0,0.322 -0.295,0.59 -0.617,0.59 C 0.268,0.59 0,0.322 0,0" /></g><g
           transform="translate(120.7546,211.0592)"
           id="g248"><path
             id="path250"
             style="fill:#111e60;fill-opacity:1;fill-rule:nonzero;stroke:none"
             d="M 0,0 C 0.349,0 0.617,0.269 0.617,0.617 0.617,0.937 0.349,1.233 0,1.233 -0.349,1.233 -0.617,0.938 -0.617,0.617 -0.617,0.269 -0.35,0 0,0" /></g><g
           transform="translate(114.5847,189.4001)"
           id="g252"><path
             id="path254"
             style="fill:#111e60;fill-opacity:1;fill-rule:nonzero;stroke:none"
             d="m 0,0 c 0,0.322 -0.269,0.591 -0.617,0.591 -0.322,0 -0.59,-0.269 -0.59,-0.591 0,-0.321 0.268,-0.589 0.59,-0.589 C -0.27,-0.589 0,-0.321 0,0" /></g><g
           transform="translate(147.694,198.0324)"
           id="g256"><path
             id="path258"
             style="fill:#111e60;fill-opacity:1;fill-rule:nonzero;stroke:none"
             d="M 0,0 C 0.269,0.053 0.35,-0.026 0.456,-0.268 L 0.616,-0.214 0.456,0.161 1.528,0.616 1.421,0.831 -0.08,0.161 Z" /></g><g
           transform="translate(147.3435,199.9635)"
           id="g260"><path
             id="path262"
             style="fill:#111e60;fill-opacity:1;fill-rule:nonzero;stroke:none"
             d="m 0,0 -0.214,-0.027 0.188,-0.83 0.911,0.08 -0.027,0.161 C 0.724,-0.563 0.644,-0.456 0.616,-0.349 0.59,-0.161 0.67,0.026 0.885,0.08 1.1,0.134 1.286,0.053 1.34,-0.161 1.394,-0.349 1.34,-0.51 1.152,-0.563 l 0.054,-0.214 c 0.349,0.134 0.376,0.402 0.322,0.616 C 1.394,0.348 0.991,0.348 0.83,0.294 0.481,0.214 0.374,-0.081 0.428,-0.349 0.455,-0.483 0.536,-0.59 0.616,-0.643 L 0.161,-0.67 Z" /></g><g
           transform="translate(147.4255,201.3039)"
           id="g264"><path
             id="path266"
             style="fill:#111e60;fill-opacity:1;fill-rule:nonzero;stroke:none"
             d="M 0,0 C 0.295,-0.027 0.375,0.214 0.429,0.322 L 0.536,0.67 C 0.616,0.938 0.67,1.019 0.857,0.992 1.1,0.964 1.126,0.697 1.1,0.536 1.072,0.322 0.965,0.081 0.67,0.107 L 0.644,-0.107 c 0.16,-0.027 0.294,0 0.456,0.134 C 1.152,0.081 1.26,0.214 1.286,0.509 1.313,0.805 1.233,1.179 0.83,1.207 0.589,1.233 0.429,1.099 0.375,0.885 L 0.215,0.402 C 0.187,0.322 0.135,0.215 -0.026,0.215 c -0.242,0.027 -0.269,0.268 -0.242,0.429 0,0.188 0.107,0.375 0.375,0.375 V 1.233 C -0.08,1.233 -0.429,1.207 -0.482,0.616 -0.51,0.214 -0.268,0.027 0,0" /></g><g
           transform="translate(149.1687,203.8776)"
           id="g268"><path
             id="path270"
             style="fill:#111e60;fill-opacity:1;fill-rule:nonzero;stroke:none"
             d="m 0,0 -0.187,0.054 -0.323,-0.966 -0.536,0.188 0.295,0.858 -0.187,0.081 -0.295,-0.885 -0.483,0.16 0.321,0.938 -0.213,0.081 -0.376,-1.179 1.609,-0.51 z" /></g><g
           transform="translate(148.1491,205.0529)"
           id="g272"><path
             id="path274"
             style="fill:#111e60;fill-opacity:1;fill-rule:nonzero;stroke:none"
             d="M 0,0 0.251,0.386 C 0.312,0.487 0.393,0.557 0.502,0.541 0.538,0.535 0.578,0.51 0.618,0.482 0.779,0.375 0.783,0.238 0.676,0.078 L 0.464,-0.27 Z m 1.256,-0.811 -0.618,0.386 0.27,0.444 C 1.095,0.341 0.968,0.601 0.753,0.734 0.646,0.801 0.526,0.822 0.405,0.792 0.285,0.761 0.158,0.675 0.077,0.541 L -0.29,-0.097 1.12,-0.984 Z" /></g><g
           transform="translate(149.3034,206.612)"
           id="g276"><path
             id="path278"
             style="fill:#111e60;fill-opacity:1;fill-rule:nonzero;stroke:none"
             d="M 0,0 1.072,-1.019 1.206,-0.858 0.161,0.161 0.563,0.589 0.402,0.724 -0.537,-0.269 -0.403,-0.403 Z" /></g><g
           transform="translate(151.2605,206.3703)"
           id="g280"><path
             id="path282"
             style="fill:#111e60;fill-opacity:1;fill-rule:nonzero;stroke:none"
             d="M 0,0 -1.019,1.341 -1.18,1.207 -0.187,-0.134 Z" /></g><g
           transform="translate(152.6286,207.1745)"
           id="g284"><path
             id="path286"
             style="fill:#111e60;fill-opacity:1;fill-rule:nonzero;stroke:none"
             d="m 0,0 -0.081,0.161 -0.912,-0.456 -0.24,0.483 0.803,0.429 -0.08,0.187 -0.832,-0.429 -0.24,0.456 0.884,0.456 -0.08,0.187 -1.1,-0.562 0.778,-1.501 z" /></g><g
           transform="translate(153.0329,207.2814)"
           id="g288"><path
             id="path290"
             style="fill:#111e60;fill-opacity:1;fill-rule:nonzero;stroke:none"
             d="m 0,0 -0.215,0.992 c -0.026,0.027 -0.08,0.241 -0.106,0.402 L 0.456,0.107 0.671,0.161 0.831,1.635 C 0.885,1.474 0.911,1.287 0.911,1.233 L 1.126,0.269 V 0.268 L 1.341,0.294 0.992,1.957 0.671,1.876 0.51,0.375 -0.268,1.662 -0.59,1.608 -0.215,-0.027 Z" /></g><g
           transform="translate(155.3356,208.2961)"
           id="g292"><path
             id="path294"
             style="fill:#111e60;fill-opacity:1;fill-rule:nonzero;stroke:none"
             d="m 0,0 c 0.161,0 0.348,-0.057 0.348,-0.271 0,-0.161 -0.133,-0.27 -0.348,-0.27 l -0.425,0.039 0.02,0.541 z M -0.367,0.733 0,0.695 c 0.241,0 0.328,-0.07 0.328,-0.232 C 0.302,0.275 0.195,0.224 -0.019,0.25 H -0.405 Z M 0.02,-0.734 c 0.375,-0.027 0.598,0.176 0.598,0.444 0.028,0.294 -0.182,0.371 -0.29,0.425 0.188,0.08 0.233,0.24 0.233,0.347 0.026,0.242 -0.124,0.437 -0.445,0.464 l -0.734,0.018 -0.077,-1.678 z" /></g><g
           transform="translate(154.7097,209.2604)"
           id="g296"><path
             id="path298"
             style="fill:#111e60;fill-opacity:1;fill-rule:nonzero;stroke:none"
             d="M 0,0 H 0.008 V 0.001 Z" /></g><g
           transform="translate(156.8044,208.8171)"
           id="g300"><path
             id="path302"
             style="fill:#111e60;fill-opacity:1;fill-rule:nonzero;stroke:none"
             d="M 0,0 0.483,-0.174 C 0.591,-0.2 0.757,-0.242 0.677,-0.482 0.622,-0.697 0.47,-0.683 0.31,-0.656 l -0.464,0.135 z M -0.271,-0.714 0.271,-0.869 C 0.539,-0.949 0.51,-1.101 0.483,-1.235 0.456,-1.289 0.379,-1.534 0.405,-1.641 l 0.272,-0.077 v 0.019 c -0.054,0.053 -0.047,0.086 -0.02,0.193 l 0.038,0.29 c 0.081,0.215 0.004,0.294 -0.077,0.347 0.108,0.055 0.275,0.087 0.328,0.328 0.109,0.348 -0.136,0.499 -0.405,0.58 l -0.754,0.251 -0.443,-1.642 0.212,-0.057 z" /></g><g
           transform="translate(158.7165,206.3698)"
           id="g304"><path
             id="path306"
             style="fill:#111e60;fill-opacity:1;fill-rule:nonzero;stroke:none"
             d="M 0,0 0.08,0.161 -0.778,0.671 -0.51,1.153 0.295,0.698 0.402,0.858 -0.402,1.341 -0.134,1.77 0.725,1.261 0.832,1.448 -0.241,2.065 -1.073,0.618 Z" /></g><g
           transform="translate(160.8405,206.2316)"
           id="g308"><path
             id="path310"
             style="fill:#111e60;fill-opacity:1;fill-rule:nonzero;stroke:none"
             d="M 0,0 C 0.187,-0.215 0.16,-0.447 -0.136,-0.714 -0.43,-0.956 -0.701,-0.949 -0.889,-0.733 l -0.251,0.289 0.888,0.753 z m -1.082,-0.927 c 0.375,-0.402 0.825,-0.221 1.12,0.019 0.376,0.296 0.469,0.734 0.174,1.081 l -0.444,0.502 -1.276,-1.062 z" /></g><g
           transform="translate(160.8894,203.4753)"
           id="g312"><path
             id="path314"
             style="fill:#111e60;fill-opacity:1;fill-rule:nonzero;stroke:none"
             d="M 0,0 0.187,0.08 -0.269,0.992 0.241,1.232 0.643,0.402 0.83,0.51 0.401,1.314 0.885,1.555 1.313,0.67 1.502,0.75 0.937,1.85 -0.563,1.1 Z" /></g><g
           transform="translate(162.3083,202.4015)"
           id="g316"><path
             id="path318"
             style="fill:#111e60;fill-opacity:1;fill-rule:nonzero;stroke:none"
             d="M 0,0 -1.154,-0.161 -1.127,-0.375 0.51,-0.134 0.482,0.027 C 0.215,0.054 0.187,0.134 0.106,0.402 l -0.16,-0.027 z" /></g><g
           transform="translate(162.4431,200.6315)"
           id="g320"><path
             id="path322"
             style="fill:#111e60;fill-opacity:1;fill-rule:nonzero;stroke:none"
             d="m 0,0 c -0.134,0.027 -0.251,0.148 -0.251,0.309 0,0.133 0.117,0.232 0.251,0.232 0.107,0 0.239,-0.056 0.213,-0.271 C 0.213,0.056 0.08,0 0,0 m -0.772,0 c -0.243,0 -0.271,0.194 -0.271,0.329 0,0.24 0.175,0.289 0.309,0.289 0.133,0 0.278,-0.114 0.251,-0.328 C -0.483,0.129 -0.559,0 -0.772,0 M 0,0.792 C -0.161,0.792 -0.275,0.721 -0.329,0.56 -0.383,0.748 -0.52,0.861 -0.734,0.888 -0.814,0.888 -0.96,0.895 -1.12,0.734 -1.229,0.6 -1.256,0.435 -1.256,0.329 -1.283,-0.047 -1.015,-0.232 -0.772,-0.232 -0.64,-0.258 -0.455,-0.214 -0.349,0 -0.321,-0.081 -0.234,-0.213 -0.02,-0.212 0.194,-0.239 0.425,-0.105 0.425,0.27 0.451,0.646 0.187,0.792 0,0.792" /></g><g
           transform="translate(162.2009,200.0431)"
           id="g324"><path
             id="path326"
             style="fill:#111e60;fill-opacity:1;fill-rule:nonzero;stroke:none"
             d="m 0,0 -0.026,-0.215 c 0.107,-0.026 0.376,-0.107 0.296,-0.402 -0.055,-0.24 -0.243,-0.295 -0.35,-0.24 -0.215,0.026 -0.269,0.187 -0.322,0.374 l -0.054,0.242 C -0.536,0 -0.671,0.187 -1.02,0.294 L -1.287,-0.805 -1.1,-0.859 -0.885,0.026 C -0.805,0 -0.697,-0.081 -0.643,-0.322 l 0.053,-0.187 c 0.081,-0.295 0.161,-0.51 0.429,-0.564 0.296,-0.08 0.537,0.109 0.617,0.376 C 0.483,-0.536 0.536,-0.133 0,0" /></g><g
           transform="translate(161.8835,198.4904)"
           id="g328"><path
             id="path330"
             style="fill:#111e60;fill-opacity:1;fill-rule:nonzero;stroke:none"
             d="M 0,0 -0.161,-0.349 -1.207,0.16 -1.314,-0.054 0.187,-0.75 0.241,-0.589 c -0.214,0.16 -0.187,0.267 -0.08,0.535 z" /></g><g
           transform="translate(152.9001,192.5666)"
           id="g332"><path
             id="path334"
             style="fill:#111e60;fill-opacity:1;fill-rule:nonzero;stroke:none"
             d="M 0,0 0.179,-0.038 1.411,5.045 C 1.351,5.054 1.286,5.051 1.228,5.063 L 0.011,0.044 Z" /></g><g
           transform="translate(152.7224,194.7433)"
           id="g336"><path
             id="path338"
             style="fill:#111e60;fill-opacity:1;fill-rule:nonzero;stroke:none"
             d="m 0,0 0.173,-0.061 1.03,3.01 C 1.144,2.964 1.087,2.984 1.028,3.003 L 0.016,0.042 Z" /></g><g
           transform="translate(150.9675,192.8893)"
           id="g340"><path
             id="path342"
             style="fill:#111e60;fill-opacity:1;fill-rule:nonzero;stroke:none"
             d="m 0,0 0.164,-0.079 2.383,5.01 C 2.489,4.953 2.434,4.977 2.378,5.002 L 0.02,0.041 Z" /></g><g
           transform="translate(150.5925,193.7248)"
           id="g344"><path
             id="path346"
             style="fill:#111e60;fill-opacity:1;fill-rule:nonzero;stroke:none"
             d="M 0,0 2.583,4.258 C 2.528,4.287 2.475,4.315 2.421,4.346 L -0.157,0.095 Z" /></g><g
           transform="translate(149.0007,193.654)"
           id="g348"><path
             id="path350"
             style="fill:#111e60;fill-opacity:1;fill-rule:nonzero;stroke:none"
             d="M 0,0 -0.029,-0.037 0.114,-0.149 3.79,4.541 C 3.739,4.574 3.698,4.619 3.649,4.656 Z" /></g><g
           transform="translate(149.2419,194.8107)"
           id="g352"><path
             id="path354"
             style="fill:#111e60;fill-opacity:1;fill-rule:nonzero;stroke:none"
             d="m 0,0 3.249,3.612 0.01,0.011 C 3.212,3.662 3.162,3.698 3.117,3.74 L -0.136,0.121 Z" /></g><g
           transform="translate(152.2106,198.6867)"
           id="g356"><path
             id="path358"
             style="fill:#111e60;fill-opacity:1;fill-rule:nonzero;stroke:none"
             d="m 0,0 c -0.042,0.044 -0.076,0.095 -0.116,0.141 l -4.813,-4.24 0.121,-0.137 4.792,4.222 z" /></g><g
           transform="translate(151.945,199.0085)"
           id="g360"><path
             id="path362"
             style="fill:#111e60;fill-opacity:1;fill-rule:nonzero;stroke:none"
             d="M 0,0 V 0 C -0.038,0.049 -0.083,0.093 -0.118,0.144 L -2.66,-1.649 -2.697,-1.676 -2.59,-1.827 Z" /></g><g
           transform="translate(151.7194,199.3298)"
           id="g364"><path
             id="path366"
             style="fill:#111e60;fill-opacity:1;fill-rule:nonzero;stroke:none"
             d="m 0,0 c -0.032,0.051 -0.058,0.107 -0.087,0.16 l -1.778,-0.992 0.087,-0.159 z" /></g><g
           transform="translate(149.5935,198.9992)"
           id="g368"><path
             id="path370"
             style="fill:#111e60;fill-opacity:1;fill-rule:nonzero;stroke:none"
             d="M 0,0 0.073,-0.167 1.952,0.651 C 1.925,0.707 1.889,0.756 1.864,0.813 Z" /></g><g
           transform="translate(149.3796,199.5641)"
           id="g372"><path
             id="path374"
             style="fill:#111e60;fill-opacity:1;fill-rule:nonzero;stroke:none"
             d="M 0,0 0.058,-0.173 1.963,0.44 2.006,0.454 1.949,0.628 Z" /></g><g
           transform="translate(151.2761,200.3898)"
           id="g376"><path
             id="path378"
             style="fill:#111e60;fill-opacity:1;fill-rule:nonzero;stroke:none"
             d="m 0,0 c -0.015,0.059 -0.034,0.116 -0.045,0.176 l -2.001,-0.437 0.04,-0.18 z" /></g><g
           transform="translate(149.1286,200.7341)"
           id="g380"><path
             id="path382"
             style="fill:#111e60;fill-opacity:1;fill-rule:nonzero;stroke:none"
             d="m 0,0 0.021,-0.182 2.06,0.219 C 2.073,0.098 2.068,0.158 2.063,0.219 Z" /></g><g
           transform="translate(149.0954,201.1574)"
           id="g384"><path
             id="path386"
             style="fill:#111e60;fill-opacity:1;fill-rule:nonzero;stroke:none"
             d="m 0,0 2.073,0.02 c 0,0.031 -0.009,0.059 -0.009,0.09 0,0.032 0.009,0.062 0.01,0.094 L -0.002,0.182 Z" /></g><g
           transform="translate(149.1296,201.7184)"
           id="g388"><path
             id="path390"
             style="fill:#111e60;fill-opacity:1;fill-rule:nonzero;stroke:none"
             d="m 0,0 2.021,-0.175 0.037,-0.003 c 0.005,0.061 0.011,0.122 0.018,0.182 L 0.062,0.178 0.019,0.182 Z" /></g><g
           transform="translate(149.1882,202.3688)"
           id="g392"><path
             id="path394"
             style="fill:#111e60;fill-opacity:1;fill-rule:nonzero;stroke:none"
             d="m 0,0 2.038,-0.442 c 0.011,0.06 0.023,0.118 0.036,0.177 L 0.036,0.179 Z" /></g><g
           transform="translate(149.3562,202.9118)"
           id="g396"><path
             id="path398"
             style="fill:#111e60;fill-opacity:1;fill-rule:nonzero;stroke:none"
             d="m 0,0 1.93,-0.635 0.027,-0.009 c 0.017,0.059 0.035,0.117 0.055,0.174 L 0.057,0.173 Z" /></g><g
           transform="translate(149.6013,203.6427)"
           id="g400"><path
             id="path402"
             style="fill:#111e60;fill-opacity:1;fill-rule:nonzero;stroke:none"
             d="m 0,0 -0.074,-0.167 1.909,-0.812 c 0.023,0.056 0.053,0.109 0.078,0.165 L 0.04,-0.018 Z" /></g><g
           transform="translate(149.7868,204.0187)"
           id="g404"><path
             id="path406"
             style="fill:#111e60;fill-opacity:1;fill-rule:nonzero;stroke:none"
             d="m 0,0 1.816,-0.985 0.018,-0.01 c 0.029,0.054 0.056,0.109 0.087,0.161 L 0.089,0.161 Z" /></g><g
           transform="translate(150.1355,204.5212)"
           id="g408"><path
             id="path410"
             style="fill:#111e60;fill-opacity:1;fill-rule:nonzero;stroke:none"
             d="m 0,0 1.657,-1.181 c 0.034,0.051 0.079,0.093 0.115,0.141 L 0.107,0.15 Z" /></g><g
           transform="translate(150.6511,205.1413)"
           id="g412"><path
             id="path414"
             style="fill:#111e60;fill-opacity:1;fill-rule:nonzero;stroke:none"
             d="m 0,0 -0.119,-0.14 1.521,-1.315 0.014,-0.012 c 0.04,0.046 0.074,0.097 0.116,0.141 L 0.035,-0.03 Z" /></g><g
           transform="translate(151.0808,205.5544)"
           id="g416"><path
             id="path418"
             style="fill:#111e60;fill-opacity:1;fill-rule:nonzero;stroke:none"
             d="m 0,0 -0.133,-0.126 1.392,-1.459 c 0.044,0.041 0.094,0.076 0.139,0.115 l -1.367,1.438 z" /></g><g
           transform="translate(151.5456,205.9274)"
           id="g420"><path
             id="path422"
             style="fill:#111e60;fill-opacity:1;fill-rule:nonzero;stroke:none"
             d="m 0,0 -0.143,-0.115 1.259,-1.578 c 0.049,0.037 0.091,0.081 0.142,0.115 l -1.23,1.542 z" /></g><g
           transform="translate(152.1247,206.2604)"
           id="g424"><path
             id="path426"
             style="fill:#111e60;fill-opacity:1;fill-rule:nonzero;stroke:none"
             d="M 0,0 -0.158,-0.09 0.837,-1.806 0.845,-1.82 c 0.052,0.031 0.106,0.058 0.16,0.087 l -0.983,1.695 z" /></g><g
           transform="translate(152.6423,206.4924)"
           id="g428"><path
             id="path430"
             style="fill:#111e60;fill-opacity:1;fill-rule:nonzero;stroke:none"
             d="m 0,0 -0.166,-0.077 0.831,-1.792 c 0.056,0.026 0.108,0.056 0.165,0.079 l -0.811,1.749 z" /></g><g
           transform="translate(153.2272,206.6989)"
           id="g432"><path
             id="path434"
             style="fill:#111e60;fill-opacity:1;fill-rule:nonzero;stroke:none"
             d="M 0,0 -0.172,-0.059 0.48,-1.923 c 0.058,0.019 0.116,0.037 0.174,0.054 l -0.64,1.827 z" /></g><g
           transform="translate(153.8347,206.8835)"
           id="g436"><path
             id="path438"
             style="fill:#111e60;fill-opacity:1;fill-rule:nonzero;stroke:none"
             d="m 0,0 -0.179,-0.037 0.406,-1.959 0.001,-0.002 c 0.058,0.013 0.119,0.021 0.179,0.031 l -0.398,1.923 z" /></g><g
           transform="translate(154.4802,204.9406)"
           id="g440"><path
             id="path442"
             style="fill:#111e60;fill-opacity:1;fill-rule:nonzero;stroke:none"
             d="m 0,0 c 0.061,0.007 0.12,0.015 0.182,0.019 l -0.2,1.999 -0.18,-0.016 z" /></g><g
           transform="translate(155.0056,206.9762)"
           id="g444"><path
             id="path446"
             style="fill:#111e60;fill-opacity:1;fill-rule:nonzero;stroke:none"
             d="m 0,0 -0.184,-0.002 0.022,-1.997 c 0.01,0 0.019,0.003 0.029,0.003 0.053,0 0.102,-0.013 0.154,-0.015 L 0,-0.044 Z" /></g><g
           transform="translate(155.2126,204.9714)"
           id="g448"><path
             id="path450"
             style="fill:#111e60;fill-opacity:1;fill-rule:nonzero;stroke:none"
             d="m 0,0 -0.003,-0.025 c 0.061,-0.006 0.122,-0.01 0.182,-0.018 L 0.372,1.975 0.191,1.992 Z" /></g><g
           transform="translate(155.7497,204.8654)"
           id="g452"><path
             id="path454"
             style="fill:#111e60;fill-opacity:1;fill-rule:nonzero;stroke:none"
             d="M 0,0 0.038,-0.008 0.437,1.984 0.257,2.02 -0.137,0.041 C -0.09,0.031 -0.047,0.011 0,0" /></g><g
           transform="translate(156.7653,206.6447)"
           id="g456"><path
             id="path458"
             style="fill:#111e60;fill-opacity:1;fill-rule:nonzero;stroke:none"
             d="m 0,0 -0.174,0.059 -0.63,-1.862 -0.013,-0.038 c 0.058,-0.018 0.118,-0.034 0.175,-0.055 l 0.627,1.854 z" /></g><g
           transform="translate(157.322,206.424)"
           id="g460"><path
             id="path462"
             style="fill:#111e60;fill-opacity:1;fill-rule:nonzero;stroke:none"
             d="m 0,0 -0.168,0.075 -0.804,-1.797 -0.011,-0.025 c 0.057,-0.024 0.107,-0.061 0.162,-0.087 l 0.802,1.792 z" /></g><g
           transform="translate(157.6511,206.2682)"
           id="g464"><path
             id="path466"
             style="fill:#111e60;fill-opacity:1;fill-rule:nonzero;stroke:none"
             d="m 0,0 -0.957,-1.709 -0.022,-0.04 0.16,-0.088 0.979,1.748 z" /></g><g
           transform="translate(156.9831,204.3444)"
           id="g468"><path
             id="path470"
             style="fill:#111e60;fill-opacity:1;fill-rule:nonzero;stroke:none"
             d="M 0,0 -0.013,-0.016 C 0.038,-0.051 0.08,-0.096 0.129,-0.133 L 1.345,1.442 1.372,1.479 1.227,1.589 Z" /></g><g
           transform="translate(157.2917,204.0802)"
           id="g472"><path
             id="path474"
             style="fill:#111e60;fill-opacity:1;fill-rule:nonzero;stroke:none"
             d="M 0,0 0.134,-0.125 1.47,1.328 1.501,1.362 1.365,1.484 Z" /></g><g
           transform="translate(157.572,203.8122)"
           id="g476"><path
             id="path478"
             style="fill:#111e60;fill-opacity:1;fill-rule:nonzero;stroke:none"
             d="M 0,0 0.122,-0.136 1.618,1.203 1.497,1.338 Z" /></g><g
           transform="translate(157.8689,203.5051)"
           id="g480"><path
             id="path482"
             style="fill:#111e60;fill-opacity:1;fill-rule:nonzero;stroke:none"
             d="M 0,0 -0.032,-0.023 C 0.005,-0.072 0.05,-0.113 0.084,-0.164 L 1.664,1.006 1.7,1.033 1.594,1.18 Z" /></g><g
           transform="translate(158.069,203.2135)"
           id="g484"><path
             id="path486"
             style="fill:#111e60;fill-opacity:1;fill-rule:nonzero;stroke:none"
             d="m 0,0 -0.036,-0.021 c 0.032,-0.052 0.058,-0.107 0.088,-0.161 L 1.797,0.8 1.837,0.823 1.746,0.982 Z" /></g><g
           transform="translate(158.2478,202.8542)"
           id="g488"><path
             id="path490"
             style="fill:#111e60;fill-opacity:1;fill-rule:nonzero;stroke:none"
             d="m 0,0 -0.024,-0.011 c 0.025,-0.055 0.057,-0.107 0.081,-0.163 l 1.81,0.797 0.04,0.018 -0.075,0.166 z" /></g><g
           transform="translate(158.3708,202.4635)"
           id="g492"><path
             id="path494"
             style="fill:#111e60;fill-opacity:1;fill-rule:nonzero;stroke:none"
             d="M 0,0 C 0.021,-0.058 0.038,-0.116 0.055,-0.175 L 1.908,0.456 1.951,0.471 1.89,0.644 Z" /></g><g
           transform="translate(158.4753,202.1296)"
           id="g496"><path
             id="path498"
             style="fill:#111e60;fill-opacity:1;fill-rule:nonzero;stroke:none"
             d="M 0,0 C 0.014,-0.06 0.03,-0.117 0.041,-0.178 L 2.009,0.265 1.967,0.442 Z" /></g><g
           transform="translate(158.5368,201.7492)"
           id="g500"><path
             id="path502"
             style="fill:#111e60;fill-opacity:1;fill-rule:nonzero;stroke:none"
             d="m 0,0 c 0.008,-0.06 0.014,-0.121 0.019,-0.182 l 1.936,0.174 0.047,0.005 -0.018,0.181 z" /></g><g
           transform="translate(158.5856,201.2677)"
           id="g504"><path
             id="path506"
             style="fill:#111e60;fill-opacity:1;fill-rule:nonzero;stroke:none"
             d="M 0,0 C 0,-0.021 -0.006,-0.04 -0.006,-0.06 L 1.983,-0.081 1.986,0.101 -0.013,0.122 C -0.011,0.081 0,0.042 0,0" /></g><g
           transform="translate(158.5183,200.6003)"
           id="g508"><path
             id="path510"
             style="fill:#111e60;fill-opacity:1;fill-rule:nonzero;stroke:none"
             d="m 0,0 c -0.011,-0.061 -0.025,-0.12 -0.039,-0.18 l 1.919,-0.437 0.042,0.18 z" /></g><g
           transform="translate(160.5192,200.5856)"
           id="g512"><path
             id="path514"
             style="fill:#111e60;fill-opacity:1;fill-rule:nonzero;stroke:none"
             d="M 0,0 0.02,0.181 -1.962,0.398 C -1.964,0.384 -1.965,0.371 -1.967,0.357 -1.971,0.31 -1.975,0.263 -1.98,0.216 l 1.933,-0.211 z" /></g><g
           transform="translate(160.2409,199.4279)"
           id="g516"><path
             id="path518"
             style="fill:#111e60;fill-opacity:1;fill-rule:nonzero;stroke:none"
             d="M 0,0 0.059,0.172 -1.778,0.785 -1.821,0.799 -1.826,0.784 C -1.843,0.73 -1.857,0.677 -1.876,0.624 l 1.832,-0.609 z" /></g><g
           transform="translate(158.3005,199.8459)"
           id="g520"><path
             id="path522"
             style="fill:#111e60;fill-opacity:1;fill-rule:nonzero;stroke:none"
             d="M 0,0 C -0.023,-0.057 -0.057,-0.108 -0.083,-0.163 L 1.675,-0.956 1.716,-0.975 1.793,-0.808 0.001,0 Z" /></g><g
           transform="translate(158.0456,199.3654)"
           id="g524"><path
             id="path526"
             style="fill:#111e60;fill-opacity:1;fill-rule:nonzero;stroke:none"
             d="m 0,0 1.666,-0.962 0.04,-0.022 0.09,0.159 -1.709,0.986 C 0.059,0.107 0.031,0.052 0,0" /></g><g
           transform="translate(157.8308,199.0461)"
           id="g528"><path
             id="path530"
             style="fill:#111e60;fill-opacity:1;fill-rule:nonzero;stroke:none"
             d="m 0,0 2.484,-1.816 0.109,0.15 -2.477,1.807 C 0.082,0.09 0.037,0.048 0,0" /></g><g
           transform="translate(157.6843,198.8678)"
           id="g532"><path
             id="path534"
             style="fill:#111e60;fill-opacity:1;fill-rule:nonzero;stroke:none"
             d="m 0,0 c -0.04,-0.046 -0.074,-0.096 -0.116,-0.141 l 4.59,-4.188 0.032,-0.029 0.125,0.137 -4.61,4.201 z" /></g><g
           transform="translate(157.2927,198.4728)"
           id="g536"><path
             id="path538"
             style="fill:#111e60;fill-opacity:1;fill-rule:nonzero;stroke:none"
             d="M 0,0 3.129,-3.602 3.268,-3.485 0.145,0.113 0.142,0.117 C 0.109,0.086 0.073,0.06 0.038,0.032 0.026,0.021 0.013,0.011 0,0" /></g><g
           transform="translate(157.0085,198.2384)"
           id="g540"><path
             id="path542"
             style="fill:#111e60;fill-opacity:1;fill-rule:nonzero;stroke:none"
             d="m 0,0 3.535,-4.669 0.146,0.11 -3.538,4.677 C 0.094,0.08 0.051,0.036 0,0" /></g><g
           transform="translate(156.6452,198.0241)"
           id="g544"><path
             id="path546"
             style="fill:#111e60;fill-opacity:1;fill-rule:nonzero;stroke:none"
             d="m 0,0 2.458,-4.195 0.022,-0.04 0.159,0.091 -2.48,4.231 C 0.108,0.055 0.053,0.029 0,0" /></g><g
           transform="translate(156.322,197.8488)"
           id="g548"><path
             id="path550"
             style="fill:#111e60;fill-opacity:1;fill-rule:nonzero;stroke:none"
             d="M 0,0 2.265,-4.93 2.283,-4.97 2.45,-4.895 0.161,0.087 C 0.106,0.061 0.057,0.024 0,0" /></g><g
           transform="translate(155.9245,197.7243)"
           id="g552"><path
             id="path554"
             style="fill:#111e60;fill-opacity:1;fill-rule:nonzero;stroke:none"
             d="M 0,0 0.972,-2.939 0.987,-2.982 1.161,-2.924 0.175,0.055 C 0.117,0.034 0.059,0.018 0,0" /></g><g
           transform="translate(155.5573,197.6237)"
           id="g556"><path
             id="path558"
             style="fill:#111e60;fill-opacity:1;fill-rule:nonzero;stroke:none"
             d="M 0,0 1.178,-5.032 1.356,-4.99 0.178,0.042 C 0.118,0.028 0.061,0.012 0,0" /></g><g
           transform="translate(137.8649,164.1969)"
           id="g560"><path
             id="path562"
             style="fill:#111e60;fill-opacity:1;fill-rule:nonzero;stroke:none"
             d="m 0,0 c 0,0 -0.572,-0.659 -0.254,-1.218 0,0 0.57,-0.724 1.426,0 0,0 -1.379,-0.021 -1.172,1.218" /></g><g
           transform="translate(170.8405,162.9787)"
           id="g564"><path
             id="path566"
             style="fill:#111e60;fill-opacity:1;fill-rule:nonzero;stroke:none"
             d="M 0,0 C 0.856,-0.724 1.427,0 1.427,0 1.745,0.56 1.173,1.218 1.173,1.218 1.38,-0.021 0,0 0,0" /></g><g
           transform="translate(143.0388,164.8991)"
           id="g568"><path
             id="path570"
             style="fill:#111e60;fill-opacity:1;fill-rule:nonzero;stroke:none"
             d="m 0,0 -0.298,0.176 -0.736,-1.243 0.298,-0.177 c 0.37,-0.218 0.742,-0.143 0.982,0.262 C 0.484,-0.579 0.368,-0.218 0,0" /></g><g
           transform="translate(145.4528,163.6374)"
           id="g572"><path
             id="path574"
             style="fill:#111e60;fill-opacity:1;fill-rule:nonzero;stroke:none"
             d="m 0,0 c -0.354,0.167 -0.774,0.018 -0.953,-0.359 -0.184,-0.391 -0.036,-0.82 0.317,-0.987 0.354,-0.167 0.777,-0.007 0.961,0.383 C 0.503,-0.585 0.354,-0.167 0,0" /></g><g
           transform="translate(153.819,161.4738)"
           id="g576"><path
             id="path578"
             style="fill:#111e60;fill-opacity:1;fill-rule:nonzero;stroke:none"
             d="m 0,0 c -0.39,0.02 -0.722,-0.277 -0.743,-0.693 -0.022,-0.43 0.278,-0.77 0.667,-0.79 0.388,-0.019 0.719,0.289 0.741,0.718 C 0.686,-0.349 0.389,-0.02 0,0" /></g><g
           transform="translate(160.6228,161.3757)"
           id="g580"><path
             id="path582"
             style="fill:#111e60;fill-opacity:1;fill-rule:nonzero;stroke:none"
             d="m 0,0 -0.414,-0.109 0.167,-0.631 0.416,0.11 c 0.198,0.052 0.283,0.209 0.233,0.397 C 0.354,-0.044 0.193,0.051 0,0" /></g><g
           transform="translate(160.739,161.9352)"
           id="g584"><path
             id="path586"
             style="fill:#111e60;fill-opacity:1;fill-rule:nonzero;stroke:none"
             d="m 0,0 c -0.044,0.162 -0.171,0.246 -0.35,0.199 l -0.381,-0.1 0.144,-0.553 0.389,0.102 C -0.031,-0.308 0.042,-0.162 0,0" /></g><g
           transform="translate(163.3747,163.0885)"
           id="g588"><path
             id="path590"
             style="fill:#111e60;fill-opacity:1;fill-rule:nonzero;stroke:none"
             d="m 0,0 c -0.059,0.006 -0.122,-0.001 -0.26,-0.057 l -0.286,-0.115 0.255,-0.634 0.356,0.142 c 0.193,0.078 0.264,0.249 0.184,0.447 C 0.197,-0.086 0.11,-0.014 0,0" /></g><g
           transform="translate(165.8532,163.9919)"
           id="g592"><path
             id="path594"
             style="fill:#111e60;fill-opacity:1;fill-rule:nonzero;stroke:none"
             d="m 0,0 0.102,-0.636 0.51,0.277 -0.476,0.433 C 0.062,0.145 -0.058,0.277 -0.058,0.277 L -0.062,0.275 c 0,0 0.043,-0.173 0.062,-0.275" /></g><g
           transform="translate(168.0397,163.6593)"
           id="g596"><path
             id="path598"
             style="fill:#111e60;fill-opacity:1;fill-rule:nonzero;stroke:none"
             d="m 0,0 -0.538,-0.336 -1.013,1.625 0.539,0.335 C -0.515,1.934 -0.003,1.84 0.316,1.327 0.638,0.812 0.497,0.31 0,0 m -0.974,-0.58 -0.432,0.392 -0.635,-0.345 0.097,-0.574 -0.244,-0.132 -0.309,2.011 0.248,0.135 1.52,-1.354 z m -1.92,-0.993 -0.717,1.521 -0.594,-0.28 -0.1,0.21 1.431,0.676 0.1,-0.212 -0.594,-0.28 0.717,-1.52 z m -0.94,-0.423 -0.657,0.555 -0.379,-0.152 0.283,-0.704 -0.248,-0.1 -0.71,1.77 0.541,0.218 c 0.186,0.074 0.27,0.091 0.348,0.092 0.207,0.005 0.396,-0.126 0.49,-0.359 0.091,-0.225 0.041,-0.467 -0.126,-0.607 l 0.002,-0.005 c 0,0 0.028,-0.014 0.084,-0.059 l 0.652,-0.536 z m -2.408,-0.879 -0.603,1.819 1.056,0.35 0.073,-0.222 -0.801,-0.265 0.189,-0.57 0.651,0.217 0.074,-0.222 -0.651,-0.216 0.192,-0.585 0.846,0.28 0.073,-0.222 z m -0.96,-0.268 -0.662,-0.174 -0.488,1.849 0.648,0.17 c 0.311,0.082 0.582,-0.032 0.66,-0.33 0.048,-0.181 -0.003,-0.349 -0.126,-0.459 l 0.002,-0.005 c 0.209,-0.007 0.367,-0.161 0.422,-0.368 0.092,-0.348 -0.132,-0.597 -0.456,-0.683 m -1.377,-0.322 -0.389,1.877 0.264,0.055 0.389,-1.878 z m -1.336,-0.234 -0.302,1.887 0.265,0.042 0.264,-1.657 0.845,0.135 0.037,-0.23 z m -1.778,-0.178 -0.902,1.202 c -0.074,0.102 -0.17,0.272 -0.17,0.272 l -0.006,-10e-4 c 0,0 0.026,-0.169 0.031,-0.277 l 0.05,-1.237 -0.267,-0.011 -0.078,1.907 0.264,0.011 0.899,-1.205 c 0.074,-0.1 0.171,-0.269 0.171,-0.269 h 0.005 c 0,0 -0.026,0.169 -0.031,0.275 l -0.049,1.239 0.266,0.012 0.078,-1.908 z m -2.617,-0.037 c -0.55,0.028 -0.958,0.488 -0.928,1.05 0.027,0.548 0.478,0.95 1.029,0.922 0.552,-0.028 0.956,-0.474 0.928,-1.022 -0.029,-0.562 -0.477,-0.978 -1.029,-0.95 m -1.326,0.139 -0.265,0.031 0.223,1.897 0.267,-0.031 z m -0.72,0.078 -0.259,0.047 -0.622,1.376 c -0.05,0.116 -0.108,0.303 -0.108,0.303 l -0.005,0.001 c 0,0 -0.012,-0.171 -0.031,-0.279 l -0.222,-1.224 -0.263,0.048 0.34,1.887 0.261,-0.047 0.619,-1.378 c 0.051,-0.115 0.108,-0.301 0.108,-0.301 l 0.006,-0.001 c 0,0 0.011,0.171 0.03,0.276 l 0.222,1.226 0.264,-0.047 z m -2.721,0.542 c -0.433,0.116 -0.654,0.47 -0.544,0.882 l 0.32,1.193 0.26,-0.069 -0.321,-1.194 c -0.076,-0.283 0.063,-0.497 0.346,-0.573 0.286,-0.076 0.515,0.039 0.593,0.327 l 0.319,1.188 0.259,-0.069 -0.321,-1.194 c -0.109,-0.411 -0.48,-0.607 -0.911,-0.491 m -1.586,2.137 c 0,0 -0.104,0.217 -0.331,0.305 -0.19,0.073 -0.369,0.007 -0.424,-0.135 -0.143,-0.368 0.758,-0.604 0.533,-1.181 -0.106,-0.275 -0.406,-0.42 -0.759,-0.283 -0.377,0.147 -0.499,0.463 -0.499,0.463 l 0.214,0.135 c 0,0 0.116,-0.265 0.38,-0.368 0.166,-0.064 0.345,-0.026 0.409,0.143 0.151,0.386 -0.745,0.637 -0.532,1.185 0.108,0.277 0.432,0.403 0.768,0.273 0.33,-0.128 0.434,-0.374 0.434,-0.374 z m -2.665,-0.573 c -0.5,0.236 -0.703,0.817 -0.462,1.327 0.235,0.498 0.807,0.7 1.307,0.463 0.501,-0.236 0.707,-0.804 0.471,-1.302 -0.24,-0.51 -0.815,-0.724 -1.316,-0.488 m -1.156,0.612 -0.237,0.127 0.906,1.684 0.236,-0.127 z m -1.356,0.766 -0.544,0.322 0.973,1.644 0.545,-0.323 c 0.503,-0.297 0.655,-0.793 0.348,-1.312 -0.308,-0.522 -0.818,-0.629 -1.322,-0.331 M 3.255,0.192 2.65,0.421 c 0.566,0.165 1.043,0.233 1.324,0.117 l -0.74,0.667 c -2.585,2.334 -5.495,0.699 -5.495,0.699 -2.866,-1.647 -6.613,-3.091 -10.84,-3.092 -4.226,10e-4 -7.973,1.445 -10.84,3.092 0,0 -2.91,1.635 -5.495,-0.699 l -0.739,-0.667 c 0.279,0.116 0.758,0.048 1.322,-0.117 l -0.604,-0.229 c 0.771,-0.305 0.454,-0.873 0.454,-0.873 l 0.938,0.832 c 1.857,-0.721 4.124,-2.063 4.124,-2.063 2.784,-1.68 6.613,-2.744 10.84,-2.744 4.227,0 8.056,1.064 10.84,2.744 0,0 2.267,1.342 4.125,2.063 l 0.937,-0.832 c 0,0 -0.318,0.568 0.454,0.873" /></g><g
           transform="translate(167.1345,165.0754)"
           id="g600"><path
             id="path602"
             style="fill:#111e60;fill-opacity:1;fill-rule:nonzero;stroke:none"
             d="m 0,0 -0.294,-0.183 0.766,-1.229 0.294,0.183 c 0.366,0.228 0.47,0.594 0.221,0.994 C 0.739,0.163 0.364,0.227 0,0" /></g></g></g></g></svg>